<?xml version="1.0" encoding="UTF-8"?>
<svg id="Layer_1" data-name="Layer 1" xmlns="http://www.w3.org/2000/svg" xmlns:xlink="http://www.w3.org/1999/xlink" viewBox="0 0 1200 1200">
  <defs>
    <style>
      .cls-1 {
        fill: #2e130c;
      }

      .cls-2 {
        fill: #14141d;
        stroke: url(#linear-gradient);
        stroke-miterlimit: 10;
      }
    </style>
    <linearGradient id="linear-gradient" x1="-23.76" y1="600" x2="1227.3" y2="600" gradientUnits="userSpaceOnUse">
      <stop offset="0" stop-color="#543713"/>
      <stop offset="1" stop-color="#182b17"/>
    </linearGradient>
  </defs>
  <rect class="cls-2" x="-23.26" y="-28.99" width="1250.05" height="1257.98"/>
  <g>
    <path class="cls-1" d="M757.02,332.61c6.21,4.27,15.22,12.43,20.82,17.74,15.24,14.45,25.2,30.67,23.56,52.56-.68,9.09-6.06,21.53,1.26,29.21,3.92,4.12,9.11,7.19,13.49,11.07,10.93,9.69,15.84,23.33,8.05,37.05-.78,1.37-3.76,4.3-4.06,5.81-.27,1.39,2.5,4.54,3.28,5.86,11.33,19.08,26.76,29.36,42.35,44.1,33.44,31.62,8.19,56.13-9.13,86.69-10.74,18.95-15.91,34.44-19.72,55.93-3.64,20.54-.14,40.21-16.85,55.85-24.45,22.87-56.78,17.62-87.13,13.44-20.88-2.87-41.36-7.68-62.07-11.11-20.23-3.35-41.28-7.15-61.65-2.95-1.92.4-3.63,2.25-5.98.91-.6-.43-.17-2.71-.38-3.64-.56-2.48-1.1-.48-.66-4.05.17-1.42.07-3.12.34-4.57,3.13-2.05,6.61-.46,9.51-.56,4.63-.17,10.1-1.46,14.74-1.47,5.32-.02,13.17.9,18.63,1.51,29.26,3.27,59.13,11.16,88.99,15.14,26.5,3.53,57.52,9.46,79.05-10.24,12.64-11.56,11.61-20.95,13.79-36.7,2.47-17.85,5.75-36.54,12.67-53.25,7.07-17.07,17.78-33.06,27.66-48.97,7.39-16.79,7.97-26.79-5.02-40.4-8.62-9.03-19.32-16.83-28.27-25.76-4.48-4.47-8.57-10.74-12.73-14.77-2.13-2.06-5-2.86-7.28-4.53s-3.7-5.6-7-1.23c-2.89,3.83-6.02,12.29-6.36,17.08-1.43,20.08,14.85,45.41,25.82,61.11,4.18,5.98,10.99,16.06,15.92,20.92,1.54,1.52,5.23,2.39,4.92,5.35-.03.26-1.13,3.95-1.25,4.2-.96,2-3.37,2.59-4.85,3.52-1.37.86-1.81,3.26-4.71,1.16-1.9-3.38-2.61-7.35-4.51-10.71-4.48-7.89-12.2-16.51-17.32-24.43-11.66-18.04-23.79-39.29-22.37-61.61,1.29-20.32,15.68-29.37,25.73-44.51,1.63-2.46,2.19-5.58,1.74-8.51-1.85-12.02-20.24-18.14-26.09-28.43-8.46-14.88,1.61-30.18-2.1-46.53-4.55-20.06-29.49-41.47-46.29-52.44-33.97-22.2-73.48-16.66-111.9-23.66l-25.51-1.01-47.91,1-.98-11.78c2.45,2.47,4.46,1.04,7.12.94,31.53-1.21,61.26.29,93.28,3.53,12.97,1.31,26.3,2.39,39.29,3.93,22.5,2.67,39.6,9.52,58.08,22.24Z"/>
    <path class="cls-1" d="M423.07,328.62c.41.14,2.06,4.22,2.07,4.54.04,1.14-3.38,4.45,1,3.69l-.28,1.5c4.72,2.44,2.57-.4,2.74-.52h2.46s0,1.96,0,1.96c-3.16.61-6.46-.38-9.55.03-13.68,1.83-37.64,13.68-49.36,21.37-20.24,13.28-48.16,41.79-56.9,64.42-5.32,13.77-10.44,31.42-14.13,45.8-9.96,38.91-14.28,90.56,11.56,124.04,24.06,31.18,61.98,61.24,94.55,83.75,17.44,12.05,51.01,28.5,72.26,30.91,6.52.74,14.04-1.29,20.85.73,11.57,3.43,11.82,15.16,6.57,24.31-3.36,5.87-8.36,9.92-10.2,16.82-2.34,8.77,2.12,15.27,4.84,22.98,16.45,46.5,39.49,89.1,57.93,134.61,5.11,12.6,9.48,25.28,14.63,37.93,8.66,21.29,14.64,43.68,23.07,64.86,1.57,3.96,3.38,7.74,4.78,11.92.58,1.73,2.5,2.82,1,5.13,1.94-.41,1.21.75,1.63,1.3,1.87,2.43.77,1.66,1.54,4.14.27.89,1.31,1.48,1.64,2.29,4.21,10.28,8.25,20.68,12.02,31.21,1.26,3.53,4.74,8.04,2.34,11.4.58,1.32,1.94-.09,2.46.26.19.13.59,2.67.55,3.22-.08,1.06-1.27.37-1.04,1.44l1.96.26c-1.17,2.31,1.4,2.91,1.96,5.16l-1.47.24v1.47s2.22-.01,2.22-.01c.34,2.37,1.94,5,3.27,7.05,1.76,2.71,5.79,7.12,8.29,8.9,1.03.74,4.54,1.22,4.88,1.99-2.11.56-1.54,2.07-2.23,3.16-.37.58-1.33.71-1.72,1.22-.67.87-.31,2.34-1.44,3.01-1.07.53-7.13-2.68-8.35-.28l.99.25-2.22,2.7-.69-.03c-.11-1.83-3.37-1.77-3.88-3.24-.62-1.79.53-3.99.44-5.81-2.63-11.6-8.51-22.27-11.76-33.57l4.35-1.8c-2.41-3.55-5.03.37-6.97-3.84-6.76-14.66-11.25-31.3-18.66-45.69l-14.09-35.06,1.41-2.11-2.38-.58-7.4-22.86.93-.88c-.55-.7-1.81-.95-2.2-1.73-1.16-2.26-2.16-7.22-3.31-9.95-2.41-5.69-5.53-11.43-7.5-17.55-4.14-12.83-6.94-22.42-12.84-34.83-4.23-8.9-8.15-18.33-12.21-27.56-14.56-33.09-31.61-65-42.96-99.49-4.3-13.08-4.91-19.84.88-32.47,1.46-3.18,2.2-3.39,3.71-5.62,1.35-1.98,4.77-6.5,5.43-8.33,2.68-7.44-14.92-5.57-18.66-5.85-22.22-1.65-54.04-15.92-72.9-28.29-9.4-6.16-18.49-13.92-27.57-20.57-13.99-10.24-28.27-19.52-40.77-31.43-17.33-16.52-40.41-38.11-48.34-61.2-14.75-42.95-6.19-89.48,6.25-131.76,5.89-20.03,11.55-36.67,24.72-53.4,22.96-29.17,58.28-56.6,95.15-64.48,1.3-.28,3.53-1.62,4.66-1.24Z"/>
    <path class="cls-1" d="M381.93,540.94c-.19-3.49-2.05-6.01-2.42-9.37-.54-4.97.79-5.2-1.4-10.39-.34-.8-1.02-.74.14-1.6.25-.1.56,1.46,1,1.94,2,2.19,4.39,3.45,6.99,4.82.39.21,1.1.1,1.59.12.36,1.65-1.4.33-.98,1.96,1.01-.25,1.38.37.49.75-1.18.5-2.63-.58-3.93-.25-.15,2.02,2.06-.26,1.46,2.68-.48,2.35-4.46,2.64-.48,6.9l-.98.49c.64.61,1.29,1.03,1.47,1.98.37,2.02-.8,10.55,1.78,11.48,2.23.8,1.41-.88,1.76-1.29.51-.59,3.04-.28,2.36-3.08,1.65,1.78,4.1,1.36,6.38,1.48l-1.47.73c1.57,1.89,3.61.08,4.94,0,1.61-.09,4.28,1.35,5.02,1.16.78-.21,2.31-2.22,3.14-2.32.57-.07.98.7,1.4.71.3.01.69-.61.96-.61.36,0,1.26.95,2.08,1.2.72.22,1.63-.08,2.27.1.48.13.3.94.34.97.15.11,2.2-1.66,3.41-.98l.5-17.18-3.68.98c-1.23-2.98,2.48-1.06,3.23-2.29l.45-4.59c-1.92-.14-4.83.8-5.4-1.71,1-1.83,2.49.38,2.95.02,1.8-1.41,2.49-4.46,2.46-6.66,1.63.75.76,3,1.09,4.56.22,1.04,1.21,4.71,1.84,5.03,3.17.77,1.06-1.7.99-3.46-.02-.54-.18-1.69.73-1.22,1.67.87-.83,4.48,4.9,4.93,2.27.18,7.06-.52,8.79.06.58.19.64,1.01.97,1.22,1.39.89,3.02,1.61,4.24,2.87.06,1.18-4.64.19-5.66.22-1.41.03-2.66.55-3.91.56-2.5.02-5.16-.61-7.61-1.03v8.1c0,1.1,1.49,2.08,1.72.25l1.71,1.47.77-1.43c2.03,1.61,4.13-.92,4.38-.91.66,0,2.54,1.26,4.96.91.98-.14.62-1.07.95-1.04.95.07,1.58,1.53,3.19.51.02.97-.39,1.75.98,1.48l2.46-1.48-2.45-.49c-1.87-1.67,6.71-3.45,7.58-3.41.93.05,1.77.74,2.6.84,9.91,1.18,16.24.9,25.78-1.99,1.08-.33,5.13-2.38,5.51-2.37,1.96.05,6.03.94,5.19,3.49h-2.95s2.46.5,2.46.5c-.62,1.84,1.35,3.44,0,5.39l20.79-.3c5.16.39,10.28,1.07,15.31-.23l5.64,1.02-44.23,1.21-1.96,8.6-2.93-.48c-.48,1.75,1.65.66,1.97.98.23,2.53-.2,4.54-1.97,6.38l1.72,1.49,1.7-.99v1.97s2.96.23,2.96.23l-.36,1.48,1.09,1.23.26-.95.96-.02c.68,2.45,5.1,2.12,2.99,5.68l-2.49.21.06,2.4,2.78,1.27-.88,3.7-1.47-.98c.1.81-.2,1.86-.01,2.6.2.82,3.29.76-.96,3.54l2.2.24.25.98c-1.35-.38-2.26,1.49-3.19,1.5-1.13.01-1.44-1.72-2.7-1.49l.49,4.42c-3.36.19-2.9-.34-2.7-2.94.05-.63.87-1.66-.49-1.48l-.75,5.4c-1.09,1.24-3.76-6.58-3.93-1.96-.81.21-.24-.84-.78-1-1.75-.49-1.67.92-2,.99-1.03.22-7.26.23-7.53.5-.11,1.25-.08,2.39.98,3.19l-1.95.25.49,1.47-4.14.51c-.47-1.62-1.17-.5-1.77-.77-1.96-.87-.96-4.78-2.23-5.09-1.72.04-2.37,1.26-3.63,2.16l.96,1.72c-2.03,0-2.27-2.69-4.38-1.91l-.06,1.37-1.94.05c-.4,1.87,1.85.5,2.85,1.09.16.1.81,1.48,1.08,1.85-1.49-.12-5.95-.28-5.35-2.6.22-.83,1.67-1.16,1.42-2.3l-1.73-.49c-.11,3.79-3.05,2.35-5.64,2.45l.98.98-.75.98c-2.39-2.12-2.88-.89-5.64-.5l.92-.53-.44-2.42c-1.65-.4-.55,1.49-1.78,1.91-.75.25-1.82,0-2.64.06l1.47-1.47c-2.1.04-3.27,1.24-4.74,2.4-.41.32-1.44.41-1.57.61-.6.92.66,2.67.3,3.74-.67,2.02-4.27-.81-2.82,3.07l.97-.98-.98,2.94,1.96.74-1.95.98,1.49,1c.46,1.64-1.52,1.13-1.53,2.43.89,1.29,1.73,2.71,1.49,4.36-.07.49-1.87.85-1.85,1.53,0,.23.73.68.74,1.05.07,1.97-.44,4.47.15,6.55-1.98.37-3.3.63-2.96,2.98l-2.37.09-.07,1.37c-2.07-1.23-5.4,1.77-6.63-.99l-.56,1.01c-1.28-.36-6.93.12-7.47,1.04l.42,2.87-.98-.24c1.12,1.75-1.48,1.22-.98,3.18l-2.2-6.86-3.2,1.46-.03-1.46c-1.2-.29-1.6.98-1.71.99-1.02.1-1.47-.79-2.07-.9s-1.17.26-1.77.2c-.55-.06-1.59-1.35-2.55.16s2.04,3.03,2.25,4.43l.98-.24-.99-3.18h1.96c-2.79,6.49,5.15,9.16,8.14,13.75-.56,1.02-.9,3.09.7,2.22l.5-1.24c-.47,2.25.93.86,1.25,1.43l.25,2c3.26-.74,1.73,2.9,2,3.37.13.23,3.62,2.64,4.36,2.05l-.98.97,4.91,4.42c-2.9-1.17-5.97-3.98-8.36-6.13-8.15-7.32-16.17-16.6-22.8-25.33-8.01-10.56-15.22-21.95-19.92-34.35.9-.18,1.22.42,1.66,1.03,2.09,2.87,4.83,8.79,6.88,12.27,3.3,5.6,5.3,8.66,9.44,13.89,1.02,1.29,1.42,3.76,3.61,4.24l-2.93-17.65c.76-.71,2.46-.61,2.95-.84.78-.36,1.13-1.66,2.2-1.65.52,0,1.07.65,1.76.73,4.16.46,9-.21,12.95-.76,1.93-.27,5.2.47,6.83.03.52-.14,0-1.49,1.3-.98v.97c1.75-1.83,1.94-.15,3.22,0,1.12.14,2.11-.82,3.01-.87,1.16-.06,3.6,2.1,5.12.18.7-.88.52-4.66,1.06-6.31.27-.82,1.2-1.05,1.29-2.06.15-1.53-.87-3.27-.95-4.43-.33-4.8.46-9.74.29-14.52l-1.25-.49c-.26,2.35-.39,5.41-1.72,7.36-.19-1.21-.5-2.36-1.71-2.94-.22.86.97,5.11-.33,5.42l-37.85.15c-1.05-.42-2.11-3.47-2.37-4.57-1.52-6.38-3.25-18.35-3.21-25.33.01-1.63.89-3.39.53-5.15l1.47,2.94v-9.09ZM452.17,544.62l-21.8.07-.55.39c-.56,1.31.56,2.27.71,3.24.51,3.15-.91,5.23,3.68,6.1,1.51-.68,0-2.26.48-2.94,3.56-1.66,3.17.18,4.31,2.13,1.46,2.5,3.3-1.48,4.81-2.11v4.91s-1.72.03-1.72.03c-1.41.05,2.99,4.38,3.19,5.14l-1.46.25c-.12,1.64.36,3.76,2.44,3.43-.42-1.7,1.37-4.18,1.42-5.13.04-.68-.48-1.58-.46-2.46.07-3.58,1.15-6.7,4.81-7.76l.12-2.82-1.22.98c-.61-1.41-3.08-.27-2.7-1.97,1.01.09,4.17.16,3.92-1.47ZM425.6,544.67l-2.87-.02c-.34,1.95-.73,3.64.96,5.13-2.08.57-.32,1.16-.22,1.94.14,1.15-.33,2.01-.04,3.94.08.52-.41,1.49-.21,1.7.3.33,2.36-.29,2.2,2.49,1.22.02,1.61-13.99.2-15.18ZM435.47,576.06c-2.64.4-6.08-.16-4.41,3.43,1.88-.55,5.09-.76,4.41-3.43ZM434,579.99c-4.03-.91-3.45,3.44-1.23,5.4l.68-.06c-.1-1.41,2.31-1.44,2.02.06h.48c-.29-1.72.11-1.93,1.47-2.7l-3.46-.97.03-1.73Z"/>
    <path class="cls-1" d="M613.7,474.32c-3.34,1.49-7.08,2.37-10.35,4.03-.9.46-7.13,4.48-7.75,5.13-.54.56-.63,1.5-.99,2.2l14.18,1.8c4.68,1.11,11.26,2.89,16.07,3.56,1.9.27,7.33.31,8.72-.91.45-.39.26-1.14.47-1.32,1.78-1.55,2.45-2.47,3.8-3.82.31-.31,2.63-2.09,2.93-1.76.67,2.73-2.33,3.8-1.96,6.38,1.25.08,1.9-.78,3.17-1.01.41-.07,2.36-.31,2.23.51l-8.34,1.97.5,1.21,21.76,3.71.58.98h1.23s-.5-1.48-.5-1.48c1.73-.63,12.77-5.8,13.17-6.49,1.09-1.87-1.75-4.28-1.86-5.57-.08-.92.68-1.95.51-2.86-.09-.45-1.7.21-.57-2.59.76-1.87,1.07.2,1.68.64.42.3,1.14.25,1.57.63,1.3,1.14,2.65,2.67,2.26,4.42l1.37.05c-.64,2.27,1.8,3.07,2,5.16.01.13-1.53.45-1.05,2.12l-3.35,1.55c-.33,1.55.98.86,1.97.97,1.07,2.97-1.93,2.77-2.37,3.52-.07.11.57,1.64-.58,2.38,2.53-.4,6.91-1.32,6.88,2.46-4.09-.35-1.41,2.51-2.46,4.91l1.22-1.96,1.73-.48c-.3,1.26-.96,3.55-.95,4.73,0,1.56,1.4,2.68.44,4.59h-1.45s.49-2.68.49-2.68l-.98-.51c-.4.28-.91,4.43-.96,5.42-.05.91.54,3.79.4,4.38-.18.75-1.26.51-1.4,1.02-.39,1.41,1.85.04,1.47,1.46l-.98,1.52c-1.8-.57-2.26.93-2.45,2.67.91.38,1.8-.82,2.21-.82.38,0,1.34,1.19,2.49,1.31,1.41.15,2.47-.77,3.8-.81.61-.02,2.23.14,1.81,1.3-8.67.41-17.22-1.09-25.79.54l-22.84.45.25.98-.73-.98-17.19-.5.73-.98,35.62-.74c.34-.93-.87-.59-.95-1.04-.05-.27.35-.79.19-1.17-.72-1.71-1.61-.42-2.54-.17-1.8.49-.45.17-1.59.9-2.76,1.78-4.09-2.95-7.39-1.71l.03-2.4c2.89-.9,5.65-.17,8.26-2.08l-.92-2.39,1.46-.02c-.67-2.34.87-3.8.02-5.88l-10.8,1.47c-.27-1.77,1.8-.52,3.22-1.44.79-.51,1.25-1.56,1.2-2.49,3.53,1.94,5.47,2.12,9.33.98v-1.47c-1.35,1.02-5.31,2.14-6.69,1.03-.56-.46-.49-1.47-.84-1.85-.51-.56-1.67-.8-2.01-1.61-.41-.96.67-4.13-1.26-5.18,2.31-1.86,5.38-1.48,8.06-2.24.56-.16,2.16-.73,2.24-1.44-.73-.01-1.4.39-2.14.31-5.7-.65-12.13-3.32-17.75-1.27l-.54-1.04c-2.54,1.28-1.74-.52-3.88-.95l1.21,1.72c-.35.77-1.55.51-1.85.84s-.22,2.44-1.24,3.18c-2.04,1.51-2.7,1.52-4.77,3.94-.69.8.11,2.08-1.96,1.6l.49-1.47c-.9-.78-6.92,6.14-7.44,7.32-.66.38-6.32-3.05-7.79-1.17.61,2.62,4.93-.52,5.89,1.47.55,1.16-2.33.39-2.94,1.96.88.17,2.13,3.33,2.23,4.12.17,1.26-2.32,4.38,1.17,4.92l.3-.97c1.6,1,3.82.15,5.29.52.38.1.28.96.65,1,.55.06,1.46-.8,1.9-.05.26.44.38,1.83.23,1.99-.88.9-1.66-1-1.77-1.01-.33-.03-2.79.41-3.26.55-.43.13-.37.9-.7.96-1.01.19-2.2-.72-3.29-.47-1.9.54,1.66,3.95-2.76,1.43l.98-1.46-1.66-.52c-.51,1.59-2.81,1.16-2.75,2.96,1.53.46,3.15.6,4.7.97.83.2,1.43-.48,1.19.99-1.77.24-3.41-.54-5.15-.53-5.01.01-9.9.28-14.76.1-.93-.03-.67-1.01-.93-.99-.62.05-1.52.91-2.28.21-.43-3.93-2.6-7.17-1.91-11.29.28-1.65,2.29-3.96-.52-5.41l1.72-2.71c.2-.1.37,1.99,1.22.98.46-.54-.85-1.37-.91-1.8-.08-.57.69-.96.72-1.4.01-.29-.61-.7-.57-.95.33-2.47,2.05-2.15,2.17-2.28,1.41-1.54-2.62-3.18-3.12-4.39-.27-.64.28-1.3.02-1.93-.25-.59-1.37-.87-1.24-1.73l1.48-.25c.34-1.61-.46-1.39-1.46-2.2,1.47-2.16,1.77-5.8,2.81-7.99,1.32-2.77,7.65-9.39,10.93-7.75,1.41.71.41,2.4,1.47,2.71l-.49-3.92c2.11-.08,3.64-1.25,5.4.49l.74-2.45,2.21.97-.49-.96c1.85-.39,4.69-2.32,4.35.91ZM596.46,486.81c-.9-.52-2.65.39-3.79-.15-.11,1.48-1.07,2.85-.06,4.21.71.95,6.41,3.65,7.89,4.39,2.25,1.13,5.41,1.66,6.65,3.67.96.37.55-.79,1.08-.96,1.47-.47,4.12-.58,5.67-1.03.41-.12.32-.81.72-.92,1.53-.45,4.3-.4,6.03-1-.01,2.3-2.68,1.15-4.08,1.57-1.03.31-3.25,1.98-5.02,2.29-.88.15-3.08-1.25-2.69.56,4.77-.78,9.18,2.08,13.75.99-.86,1.15-2.62,1.35,0,1.96.02-2.18,1.95-2.2,2.69-2.95.51-.51.66-1.57,1.23-2.23.72-.81,2.38-1.35,2.4-2.51.07-2.63-4.2.29-5.34-.18l2.39-1.04.06-1.9c-2.59.68-5.65-.62-8.14-.95-1.65-.22-7.59-.13-8.58-.78-.36-.23-.38-1.04-.53-1.16-.1-.08-1.55.6-2.6.43-.66-.11-1.18-.77-1.64-.85-2.58-.47-6.53-.56-8.09-1.45ZM592.82,492.38c-.4-.36-.47-1.25-1.15-1.3v3.12s-.98.8-.98.8l1.46.24c-1.37,1.85.49,1.79.85,2.36.88,1.41.88,3.89,3.59,3.29l-.26-3.95,2.71-.71c-2.06-1.36-4.32-2.17-6.21-3.87ZM673.2,491.58c-.18-.17-4.44.98-4.88,1.25-1.57.99-.9,2.57-1.03,2.65-.61.38-3.5-.1-3.91,1.5,1.4-.68,3.15.37,4.18.27.38-.04.8-.65,1.45-.71.54-.05,1.51.61,1.74.44.12-.09.34-2.01,1.43-2.37l1.03-3.04ZM674.68,499.93c-2.47-.03-4.86,2.15-6.38,3.92,2.57.26,3.72-2.15,5.05-3.31.4-.35,1.5.29,1.33-.61ZM664.36,505.82c-1.71-.93-4.44-2.92-3.61.48.69.41,3.39.76,3.61-.48ZM659.95,506.31c-1.62.4-4.57-.33-4.42,2.2l1.22.76c.48-1.74,2.64-.69,4.17-1.49l-1.48-.49.5-.98Z"/>
    <path class="cls-1" d="M563.67,615.84c-.3-1.21-6.87-3.64-8.33-4.68-1.77-1.69-3.28-3.61-4.91-5.43-.9-1.01-2.19-.14-.77-2.17l4.43,2.93.98-2.93c2.09.77,1.32,2.08,1.73,3.92l.49-1.96c1.27,1.15,1.37,2.3,3.43,1.47.18-.78-.27-1.01-.72-1.49-.55-.58-4.05-4.14-4.32-4.28-.57-.3-1.24-.09-1.84-.12.1-.58-.52-1.65.74-1.48,1.33.17,7.23,4.73,8.37,5.88,1.02,1.03,2.58,2.65.47,2.98l-.98-.99-1.49,1.97-1.46-.98-.73,1.21c.08.38,5.51,4.09,6.4,4.41.76.28,8.61,1.73,9.07,1.73h7.37c2.8,0-.46-4.61-1.24-.99h-.72c-.47-.99-.99-1.48-2.21-1.47-.28.9-.12,2.32-1.48,1.97.5-3.93-2.05-3.51-4.91-3.93v2.21s-.98.24-.98.24c-.6-1.46-1.37-.93-.53-2.88l-4.4-1.77c-1.03-2.3,2.58-.01,3.73.2,5.88,1.08,14.28,1.67,20.05-.01.99-.29,8.81-4.87,8.15-1.67-1.21,1.6-3.59,1.73-5.39,1.23l-.47,1.75-2.5.21-.02,1.94-2.92.52c.17-.57,1.02-1.11-.24-.98-2.03.21-2.28,1.66-2.21,3.44.87.87,13.02-2.61,14.85-3.47.41-.19.42-.73.73-.95.85-.61,1.98-.05,1.6-1.47l-2.94.49c-.49-1.6,1.85-1.01,1.97-1.73.32-1.88-2.13-2.12-2.47-2.94l.04-.71.8-.11c-.81-2.26,1.05-1.79,1.93-2.55,2.21-1.89,4.05-4.87,7.04-5.72,1.66,4.1-1.83,2.59-3.76,4.1l-2.62,3.27,3.64-.92.3-1.16,1.46-.37c-.22,1.46-1.18,2.57-1.59,4.05-.18.67-.9.95.36.85l5.91-4.41c.88,1.98-5.89,5.77-2.71,6.39v.48c-1.46.14-1.04,1.95-2.91.99.07,2.16-2.55,2.57-2,4.91l8.84-.48-1.75,1.93.76,1.02c.37-.72,3.86-4.74,4.2-4.9,2.39-1.09.36,2.36.28,2.73-.32,1.52-.65,3.05-.54,4.62l-1.23-.05-1.23,2.75.98.24v.73c-2.11.17-.32,4.5-1,5.14l-2.44.77c-.25,1.24,2.51,2.12-1.15,4.97-2.22,1.73-2.97,1.9-5.23.18l-1.8,3.48c-1.75.28-2.26-1.52-2.41-1.54-1.29-.14-2.51,1.45-3.17,2.48,1.17.36,3.68-1.35,4.42,0-2.15.09-3.75,1.13-3.44,3.44l-2.44-4.2c-1.57-.18-2.05,1.38-1.97,2.73l1.17-.49,1.27.99-.35.98h-1.12s.49,1.47.49,1.47c-2.21-.34-5.32-.38-7.13.99l-.48-.98c-1.17,1.55-3.25.67-4.91,1.48l-.26-2.95-.49,2.94c-1.38-.04-2.28-.95-3.76-.83-.74.06-1.23.8-1.78.73-1.63-.21-2.24-2.47-3.78-1.37.7-3.67-3.7-1.27-2.95-4.91l1.47-.49c-3.06.21-5.23-2.99-8.38-1.75-1.36,1.88-.06,2.07,1.01,3.21-2.94,1.22-2.38-1.85-4.9-2.27-1.3-.22-1.32.92-2.46.8l.49-1.96c-2.03-.85-2.79,1.39-4.2,1.44-.13,0-.44-1.58-2.14-.99l-.05-4.39-.76,1.01-5.13-.52c1.03-1.59-.45-2.26-.51-3.18-.02-.27.8-.17.97-.62,1.98-5.03.8-12.01.53-17.32l1.51.3c.77,2.19,2.43,4.39,3.92,6.18,10.29,12.41,28.46,17.43,43.69,11.44,2.53-1,5.07-3.41,7.87-3.19v-1.47c-.89-.19-1.89.61-2.65.52-.26-.03-.42-1.64-1.77-1.02v1.98c-3.6-.73-7.48,3.33-10.8.48l-.06,1.91-7.06.57-.51-1.51-4.66.5c-.42-1.98,6.39-2.16,6.81-1.89l.51,1.6,1.52.3v-2.95c-.31-.31-2.44.77-1.96-.98h2.46c.11.98-.58,2.29.98,1.96l.55-2.89,1.58-.05c1.67,2.83,2.24-.67,4.26-.51l-1.96-.98c.26-3.34,4-1.12,5.5-1.96.89-.5.97-2.2,3.34-1.48v-1.47c-1.32.77-2.61.04-3.62.14-.74.07-1.51,1.89-1.79-.63l1.71-.99c-4.52,1.23-9.14,1.53-13.81,1.94-.66.06-1.08-.3-1.65-.46l1.47,3.93-2.71-.46-.23,1.94-3.44-.48,1.47,1.95-1.68.03c-.5-.14-.39-3.05-2.24-1.99-.33-.56,1.52-4.8,2.94-3.93l-.49-1.24c-3.73,1.16-6.18-2.08-9.83-1.21.13.53-.09,1.36,0,1.97-1.42-.79-2.85.28-3.92,1.23,1.03,2.97.94-1,2.22.23.29,1.11.41,2.59.27,3.71-.28,2.27-6.23,1.01-3.48-1.49-.34-.8-1.11-.28-1.33-.44-2.17-1.53-3.87-3.27-6.52-5.04-.69-.46-.64-2.02-1.96-1.16v-2.46s1.96.99,1.96.99l.49-1.47c.1,1.81,2.78,2.23,1.97,3.92l2.45-.49c.58,4.97,5.3,1.1,7.87.49Z"/>
    <path class="cls-1" d="M615,539.22c-.48.07-3.63,1.16-2.7,1.96,1.91-.44,3.97.46,5.66.49,8.97.18,19.58.47,28.48,0,1.33-.07,2.73-.78,4.18-.49l-.48-1.74c-2.04.16-4.11-.09-6.16-.22-.98-.06-1.42.39-1.22-.98,3.96.62,7.99-.25,12.01-.51,5.43-.34,7.4-.49,12.83-1.42,1.82-.31,3.56.56,5.12-1.02-.63,1.8,2.63,2.92,2.48,1h.95s.03.93.03.93l1.95-.95v2.45c2.1-1.78,4.53-.87,2.95,1.96l7.86,1.48c0,.85-2.15.54-2.72.51-22.42-1.23-45.47.79-67.75.51-4.06-.05-12.06.29-15.63-.54-.26-.06-.67-1.68-2.3-.97l.5.97-4.17.5.73-1.48-16.21-.5.25,8.11-1.47,3.18c-1.82-1.35.04-2.54.24-3.72.36-2.17-.8-3.43-2.44-3.89l1-1.92c-1.42-.53-1.26-2.35-2.26-3.23-.51-.45-1.33-.37-1.59-.63-.43-.43.49-1.73-1.08-1.34l-.5,2.94c.97.03,1.75-.39,1.48.98h-1.96c-.21.93.76,1.46.85,2.27.18,1.56-1.24,3.75.39,5.61.48.55,2.91.13,2.2,2.92l-2.71.81c-1.31-.37-2.77-1.76-3.07-3.11-.76-3.36,1.8-8.71-2.59-10.24l-.46-5.85,3.44-.26.5-11.78h-1.47c-.45,1.1.62,4.34.27,4.91-.19.31-2.99,2.63-3.22,1.22.36-2.04.31-5.32-.78-7.08-.23-.37-1.17-.42-1.2-.8-.04-.43.58-1.46.54-2.41-.09-2.57-.65-7.78-1.04-10.26-.46-2.91-3.07-6.18-2.45-9.36l1.98-.28c.43-.41-.96-3.99.98-3.44l.45,2.25-.92.21v.98s1.37.3,1.37.3c.27,2.61.81,5.34,1.38,7.99.27,1.26,2.63,4.5-.55,3.5l-.25.98c2.78-.11,2.53,2.79,2.46,4.92l1.86-1.33c-.11-3.29.81-6.56,1-9.8.15-2.45-.34-5.1-.31-7.3.15-12.39.22-24.79.9-37.31.13-2.29-1-7.05,1.2-8.13v.99s2.49.46,2.49.46l.96,3.96c1.87-.82.46-2.28,3.18-1.96-.61.92-.26,2.05.75,2.45.82.33.82-1.69,2.2-.98v17.19s-2.45,0-2.45,0l2,1.69c-.08,7.89-.26,15.75-.58,23.61-.11,2.81.26,5.85-.48,8.81-.24.97-1.01,1.3-.94,2.24.67-.07,1.5.17,2.11.01.75-.19.62-2.4,1.81-.75l-.98,1.22,1.5.3c-.19,1.48.65,2.9.51,4.37-.1,1.04-1.03,1.86-.96,2.36.09.62,1.27,1.23,1.34,2.52.02.33-.22,2.34-.91,2.23l-.5-2.95c-2.51,1.5-3.4-1.5-4.67-1.5-1.34,0-.93,2.02-1.96,1.5l-1.49-2.45c-1.25-.28-.35.94-1.03,1.51-.42.36-1.74.37-2.15,1.19l3.44,1.47-1.75,1.21-1.2-.96c.31,3.1-2.4,8.24,2.45,8.59-2.17.92-3.24,2.11-2.94,4.67l2.45-2.45-.98,2.45,1.97.98-1.96.73c.47,1.34,2.46,1,2.85,1.33.32.27.35,2.12.59,2.36,1.29,1.33.63-1.63.7-1.97.09-.48.78-1.01.8-1.69,0-.21-2.74-1.68-1.26-3.71l.5.99.72-.02c-.31-.97,1.05-1.33,1.46-.95.14.13-.11,2.16,1.49,1.96v.47c-1.5.08-1.82,1.74-1.96,2.95.27.24,5.8-.03,6.56-.47.64-.36.19-1.35.32-1.5s3.12,1.07,3.19-.99c.68,1.05.68,1.78,2.21,1.48-1.41-2.21,2.61-.2,3.3-.09,2.91.46,7.11,1.36,10.7,1.56s7.08-.96,10.35-.53c.92.12.63.96,1.01,1,1.31.13,3.53-.37,4.86-.47.98-.08.76.14.73.99-2.83.3-6.37-.4-9.09,0ZM579.88,469.47c.09-1.56.18-4.3-1.96-4.41l.45,1.68-1.86.83-.07,2.39,1.72-1.47,1.71.98ZM577.91,472.42l-.97.72c.32,1.18,1.26,3.42,1.18,4.57-.16,2.1-1.95,3.48-1.68,5.24.08.54,2.66,5.26,3.43,4.68-.18-1.49,1.87-1.28,2.02-1.76.45-1.5.05-5.41-1.76-6.08l-1.21,1.47-.29-1.96,2.27-1.25-2.98-5.62ZM579.88,488.63c-1.17.04-2.16-1.03-2.94.24l.99,1.47c-2.37.44-.08,4.61-.51,5.16l-1.95-.98c-.25,1.61-2.32,4.27-.47,5.15.59.28,1.71.14,1.88.32.18.18-.04,1.4.51,2.18,1.79,2.55,4.6.91,4.35-1.42-.07-.63-.79-1.26-.88-2.09-.13-1.22.67-2.4.49-3.64-.26-.35-2.81,3.17-3.43,2.45-.46-.53,1.4-2.45,1.33-3.78s-1.13-2.53-.19-4.48c.1-.22,1.04.22.83-.57ZM569.08,521.54c2.83-.01,3.18-3.48,1.22-4.42-1.21-.58-1.3,3.91-1.22,4.42Z"/>
    <path class="cls-1" d="M575.95,556.41l.82,2c2.91-.18,5.77-.64,8.52.45l-.26-.98,1.48-.49c.56,1.57,1.41,2.42,3.19,2.71,3.3.54,9.54.34,12.44,1.28.79.26.82,1.35,1.31,1.65.75.46,2.24.13,3.42.51.98.31,7.34,4.18,8.35,4.92,1.53,1.12,2.43,2.86,3.95,3.95-.44,3.26.6,5.7-.63,9.14-1.04,2.9-5.54,6.91-8.09,8.72-15.67,11.17-51.08,12.48-67.3,1.61-2.29-1.53-4.89-4.26-6.2-6.54-.9-1.56-1.03-5.76-.76-7.55.46-3.01,4.38-8.99,7.83-8.63l-.49-1.47c5.02.01,8.41-6.62,13.75-5.41l-.98-.97c1.43.11,4.59.39,5.86-.26.67-.34.94-1.22,1.82-1.55.72-.27,2.9.13,3.78-.14.61-.18.26-1.64,1.06-1.98l.52,1.02c2.02-.41,2.43-1.56,4.36-.04.67-.14.94-2.37,2.23-1.96ZM607.88,569.67c.27-1.26-.2-1.24-.81-1.89-5.13-5.45-17.42-6.7-24.48-6.42-.83.03-1.84-.54-2.4-.43-.6.12-.93,1.08-1.51,1.18-1.13.19-2.47-1.12-3.07-1.2-.56-.07-6.66,1.16-7.79,1.34-5.23.85-11.99,2.18-16.51,5.11-.82.53-1.34,1.13-1.66,2.05.08,1.24.87,2.18,1.41,3.21.15.29-.13.87-.09.9.74.56,8.54,2.06,10.16,2.41,4.52.97,14.29,3.53,18.48,2.53,3.69-.89,3.44-1.12,7.4-1.4,3.21-.23,13.95-3.61,16.8-5.34,1.22-.74,2.2-1.47,2.12-3.05,1.61-.44.29,1.32,1.96.98ZM606.77,573.76c-.68-.4-1.58-.1-2.33-.15l.98.97c-4.84,1.36-9.87,1.99-14.75,3.18-.79.19-1.92,1.08-2.19,1.07-.42,0-1.14-1.12-2.45-.8l-.26,1.46c-2.08-.32-3.99,1.13-5.89,0-1.06,1.84.22,2.43.44,3.74.37,2.2.96,4.17,1.29,5.84.52,2.68-.57,6.23,3.15,7.4,4.11,1.29,4.66-1.3,7.64-2.7-.61-2.06.67.07,1.72-1.26l-1.96-1.22c3.36-.77,7.22-1.84,10.4-3.11,3.41-1.37,10.23-4.9,12.07-8.07.82-1.41,1.26-2.92.52-4.45-1.68.13-2.7-1.35-4.11-1.55-1.56-.23-2.97.62-3.83.5-.32-.04-.29-.76-.44-.85ZM573.01,579.01c-1.06-.14-2.03.46-3.08.37-5.42-.46-12.06-2.86-17.81-3.32-2.63-.21-5.17.15-7.77.47l-3.76,7.15c1.11.21.79,1.38,1.31,1.71,2.26,1.44,8.77,4.71,11.35,5.77,1.36.56,2.83.12,3.75.39,1.41.42,8,2.46,8.39,3.18.24.44-.17,1.26-.03,1.46l.54.46c1.84-.91,2.59.59,4.31.5.67-.03,4.26-1.02,4.52-1.44.49-.77.04-1.86.21-2.63.13-.56,1.37-.38,1.52-1.57.14-1.13-.71-3.97-.8-5.5-.17-2.82,1.5-6.99-3.17-6.05l.5-.98Z"/>
    <path class="cls-1" d="M545.5,314.75c-.79.93-13.5.34-15.93.48-14.92.87-31,3.74-45.58,7.03-7.78,1.76-11.94,3.62-20.29,3.32-5.7-.2-11.42-1.41-17.17-1.01l-5.17-1.22c5.86-2.06,11.62-4.24,17.65-5.93,27.53-7.72,55.47-12.08,84.28-13.5.46-.02,1.38-.13,1.64.1-.04.53.56,1.38.56,1.64v9.09Z"/>
    <path class="cls-1" d="M438.42,424.28c-3.05.22-5.81.82-8.84.98.67-1.97,1.01-3.96.81-6.05-.05-.47-.75-1.07-.84-2.03-.55-5.74-.62-11.56-1.43-17.27l1.46-2.16h-1.47c-.48-1.9,1.09-.98.99-2.21-.06-.44-.87-.08-1-.57-.58-2.22-.05-7.29-.18-9.67-.44-8.41-1.25-16.69-1.77-25.14-.36-5.78-.44-11.64-.49-17.43,2.35.42,5.26,0,7.6.5,1.42.31,1.58,2.01,3.2.97.15,1.9-2.1,2.29.45,3-.7,3.35.39,7.54.51,11.02.05,1.39-.43,2.9-.42,4.32,0,1.31,1.41,2.51-.53,3.02,2.01,1.54,1.56,5.01.49,6.89l.95.44c-1.17,1.27.6,8.95.03,9.62l-1.72-.97-.73,1.21,2.48,1.54c-.28,13.3,2.02,26.73.46,39.97,2.85-.21,8.05-1.15,10.96-1.98.21-.06,1.05-2.59,1.81.5-1.95-.32-3.59,1.05-5.2,1.43-9.98,2.37-19.82,5.56-29.95,7.88-4.62,1.05-8.27,2.26-12.7,3.51-2.73.77-5.03,2-8.14,1.43.17-1.46,6.1-1.45,4.88-2.92l-.95-.26,6.18-2.18.94.95c.39-.52.89-.8,1.51-.95,7.07-1.76,14.34-2.95,21.45-4.58,2.86-.66,5.73-1.59,8.62-2.18l.6-.64ZM427.62,347.65c1.22-.6,5.65-.37,5.36-2.14l-1.91-1.79c-.21,2.31-3.93.87-3.45,3.93Z"/>
    <path class="cls-1" d="M382.8,435.23c.12.07.1.82.42.86.93.12,2.84-.98,4.11-.51l-.98,2.94,1.48-2.45c.95-.17.23,1.14.51,1.44.4.42,3.19-.63,3.41.52-3.62,1.78-5.85,2.59-9.82.99-.06,1.69,1.35,2.84,1.01,4.66-.27,1.41-1.4.77-1.5,1.71h2.94s-.24-2.93-.24-2.93l2.48,4.44c5.8-.44,11.09-3.02,16.91-2.97.06.95-1.4.31-2.12.49-.37.09-.3.88-.67.97-.84.19-1.91-.15-2.81.06-3.61.81-7.08,2.27-10.61,2.41-.48,2.38,1.65,2.97,3.44,3.68-1.35,1.08-.84,3.1-2.19,4.2-.96.78-3.85,1.71-5.18,1.95v.97c1.77.03.83,4.15,1.1,6.04.52,3.63,2.56,8.12,3.46,11.76.61,2.46,1.45,11.46,3.03,12.72l29.49.44c2.6,2.9.19,2.74,0,3.84-.17,1.03.56,2.23.75,3.24-2.12.79.25,4.68-.52,6.91.05,1.13,1.01,1.25,1.97,1.23v.73c-1.77.15-.47,5-.99,5.65l-1.47-.49v2.45s1.96-.49,1.96-.49l-1.73,5.89-.24-1.96h-1.96c3.06-2.7-.95-4.22,1.96-6.15l-.08-.66c-1.54-.07-.77-1.8-.89-3.02h-2.46s-.73-1.96-.73-1.96c-1.29.85-1.22,1.58-.96,2.96l-2.24.47.98-.98-1.02-1.19c-.78-7.18,4.9-10.45-6.61-10.13-1.84.05-7.54.41-8.93.9-4.12,1.45-1.61,3.38-2.12,6.22-.18,1.02-1.4,2-.97,3.38l-1.47.33.49-2.45h-2.45c-.51-1.24,2.05-2.01,1.96-2.21-1.83-1.16-.41-3.8-1.21-5.2l-1.24.04c-.02-1.19.11-2.38-.12-3.57-1.75-9.18-5.69-19.34-7.23-28.63-.25-1.53.31-3.17-.25-4.67-.14-.22-3.55-.53-3.87-.48-.36.06-.28.89-.66.99-1.51.38-6.25-.73-7.68-1.45-.37-.19-3.25-6.57-3.24-7.57,0-.7,1.28-6.99,1.53-7.81.36-1.17,6.34-7.27,7.62-7.61.62-.17,6.13-1.11,6.41-.94ZM372.6,444.41c1.73.74,3.96-3.06,2.2-3.43-1.4-.29-1.82,2.52-2.2,3.43ZM379.97,457.68c-.79-1.64-2.13-2.25-3.93-1.96-.6,2.87,1.88,2.65,3.93,1.96Z"/>
    <path class="cls-1" d="M439.4,487.65c.27.31-.74,3.62-.34,4.6.43,1.05,1.6,1.25,2.23,2.11,1.73,2.32,2.26,3.61,1.58,6.52l2.42.53c.24,2.53-2.41-.45-2.95,0,1.1.95,1.46,2.92,2.45,3.68.56.43,7.64,3.23,8.75,3.58.75.23,1.56-.29,2.12-.13,1.58.45,3.37,1.69,5.33,1.72v1.42s-1.93.82-1.93.82c-.17,3.06,2.35,2.28,3.91,3.39,1.06.76,2.77,4.65,2.45.25,3.26-1,3.69.55,6.39,1.47.05-2.7,2.46-3.9,4.92-3.93.27.9-.75,1.17-.85,1.78-.19,1.1,1.45,2.87-1.11,3.14,3.02,2.91-1.21,4-1.02,5.59,1.12.73,2.2,1.19,1.51,2.74.71.38,2.9-.84,2.46.98l-3.47-.21c-.93-.67.29-2.68-1.44-2.25.38,2.47-.3,1.56-1.26,2.16-.21.13-.24.63-.6.75-8.66,2.86-22.91-1.5-31.16-4.91-.57-.23-1.29-1.91-2.61-1.93l-1.21.75c.07,1.31,1.36,1.94,1.8,3.02.04.1.51,2.59-.56,2.12-4.37-3.7-7.09-6.46-9.15-11.88-.16-.43-.83-.4-.91-.75-.25-1.09-.25-3.32-.27-4.56,1.49.35,4.41,3.25,4.2,4.66l-1.04.52c.43.52,1.14,3.55,1.28,3.69.69.66,2.72.42,3.43,2.42l.65-.1c-.22-1.17,3.71-1.42,4.26-1.26.36.1.29.76.57.88,1.25.53,2.32.12,2.97,1.45l13.89,1.49c.02-.85-1.36-.65-1.71-1.44-.16-.36.24-1.35.12-2.08-.31-1.87-.52-3.84-1.35-5.58l1.96-1.21c-1.63-.49-4.94-.33-6.17-1.45-.68-.62-.64-1.71-1.2-2.24-.61-.58-1.63-.46-2.07-.77-3.53-2.59-4.28-3.13-6.34-6.92-.82-1.52-1.48-2.13-2.57-3.69-.23-.33-.93-.41-1.06-.62-.25-.44.34-1.4.22-2.16-.29-1.86-1.22-3.21-.47-5.23h-1.12c-1.18-.11,1.24-2.35,1.4-2.39.46-.09,1.02.43,1.4.43.43,0,.04-1.62,1.26-.99ZM470.83,518.1l-2.07-.37-4.8,1.59c.87,1.54,1.2,2.33,3.14,2.21,1.08-.07,4.19-2.82,3.73-3.42Z"/>
    <path class="cls-1" d="M733.13,428.21l.98,39.79c-2.6.57-3.85-1.98-6.38-1.48-.66,3.51,1.31,4.04,4.4,3.89l.27-1.45,1.72.99-1.47.77.73,1.72-.49.95c-.54-1.67-5.96-2.16-6.14-1.21.74,1.43.1,3.56,1.49,3.92l-1.42,2.37c.65,1.17,2.69,2.9,1.69,4.29-.44.62-2.06.33-2.24,1.44h2.95c-3.88,2.45,1.27,7.6-1.96,10.57l1.96.25c-1.43,1.85-2.54-.41-3.12-.84-.36-.26-1.06-.04-1.34-.44-1.31-1.9-.36-10.48-.43-13.24-.15-6.53-.28-13.08-.49-19.64-.28-8.82-1.06-18.03-1.49-27-.09-1.88.05-3.77,0-5.64,3.66.68,7.15.67,10.8,0ZM731.66,447.36c-2.6-1.63-1.91-1.47-2.65-3.96l-2.75-.45.29,1.52,1.68.45-.98,2.66,2.45,1.51-3.44.24c-.82,3.55,1.8,4.71,3.47,1.74.95-1.68-.87-3.28,1.93-3.71ZM731.16,460.13c.92-.94-.52-7.77-1.96-6.38.12.86-.61,1.89-.52,2.65.01.12,1.75.63,1.01,1.76-.42.65-3.76-.54-3.43,1.23.22,1.18,2.06.13,2.47.45l1.22,2.26,2.7-.98-.36-.98h-1.12Z"/>
    <path class="cls-1" d="M561.7,345.69l-.43,2.24c2.7,3.77,1.18,10.72,2.15,15.23,1.66,7.71,1.38,16.71,1.93,24.92.11,1.57,1.51,5.43-.15,5.29l-.05.93,2.45.99-.5-.96c1.49-.03,2.55-1.4,4.11-1.01.37.09.29,1.01.56,1.01.98,0,2.13-1.75,3.47-1.97,1.56-.26,2.79.58,3.87.47.75-.08,3.49-1.4,4.55-1.75,2.27-.74,3.59-.99,6.28-1.18.6-.04,1.82-.24,2.2.24l-24.54,6.42c-2.5-.88-1.92.9-2.77,1.17s-1.44-.38-1.94-.41c-.24-.02-.13.8-.55.91-.58.16-5.36.7-5.56.5v-1.96s2.74,1.01,2.74,1.01l2.17-1.01c.14-1.39-1.12-.91-1.53-2.22-.45-1.42.5-7.17.06-7.59l-3.16-.51-.58,1.03-2.83-.49-.72,1.1c.45,2.15,2.47,2.82,1.4,4.76l1.43.03-.44,4.88-2.21-.97-.73,1.46,2.94.98-2.44.99-.99-1.47-.34,1.5c-1.39-.65-1.79.97-1.91.97-.51.01-1.19-.59-1.86-.53-.18.02-.85,1.16-3.08,1.45-1.71.22-1.84.5-1.99.52-2.2.35-4.52.57-6.76.47l-.75,1.5-2.46-2.45,7.49-1.11,2.64-1.32,8.54-1.01c-.71-1.98-.2-4.27-.52-6.11-.25-1.44-2.34-3.94-2.45-4.97-.18-1.71,2.54-2.31,2.51-3.38l-2-18.44,2.95-.5,1.42,15.99c1.43,1.7,5.78-.43,7.92.22.04-2.94-1.7-6.71.49-9.01l-1.47-9.38.73-.61,1.23.34c.49-2.91-1.62-4.88-.98-7.86l-1.17.41-.77-1.09c.7-2.43.59-5.19,1.31-7.59.25-.85-.17-1.28,1.12-1.06Z"/>
    <path class="cls-1" d="M568.09,409.06c.74.79-1.67,1.59-1.9,2.29-.59,1.78,1.53,3.72.18,5.07l-1.24-4.9-3.87,1.02c.6,1.8,1.23,3.7,1.98,5.44.36.83.48,1.34.71,1.88.26.62,1.89,1.26.96,1.95l-1.23-.98-.5,2.45h1.97c-1.39,3,3.8,2.94.99,5.65l.97.73.25-.98,1.22,1.23c-.65.78-1.83.39-1.46,1.72l1.46-.28c1.63.71.45,6.18.95,7.82l-2.41,1.78c1.25.28,2.6-1.12,3.36.23l-.42,2.23-1.96-1.47c.09.99-.19,2.13.02,3.08.09.39,2.69,2.47,1.94,3.3-1.83-.82-2.07-.04-3.43.98l-.53-10.02c.13-.46,2.94-.57,2.49-2.26-1.77.86-3.95,1.99-5.88.98v2.46c-.73,1-1.57-4.91-1.63-5.48-.27-2.53-.02-5.26-.39-7.98-.2-1.47-2.25-7.72-1.37-8.61l1.45-.3-.04-5.13c-.88-.81-.75-.18-.86.59-.16,1.08.04,2.67-.12,3.82-.73-.28-.7-2.5-.79-3.3-.05-.44.26-.72.31-1.12-5.14-.01-4.92,1.8-4.74,6.08.09,2.12.65,5.02.79,6.94.23,3.27-1.09,5.6-1.02,7.37.04.89.95.66,1.04,1.06.33,1.45-.63,2.86-.51,3.78.04.33.92.26,1,.64.2.87-.21,1.97-.01,2.77.13.52,1.19.45,1.38,1.11.13.45-.46,1.47.11,2.17-2.26-.7-2.21,1.14-3.93.98,1.33-2,0-3.5-.28-5.15-.22-1.27,1.12-2.94-1.68-2.7l-.05,1.41-1.92.06c-.54-1.56,1.01-1.24,1.03-2.19.03-1.44-.83-2.8-.86-4.02-.05-1.72.41-3.84.34-5.84s-.91-4.02-.51-6.12l1.93.8c-.4,1.47-.34,2.44.02,3.9.21.84-.48,1.44,1,1.2l-.03-5.13,1.51-.27c-.49-1.99.59-5.26-.48-7.01-.43-.71-2.31-.31-1.97-1.82,1.98.46,3.39-.7,5.11-1.07,3.21-.7,7.15-.78,10.25-1.9.34-.12.53-1.83,1.34-.96Z"/>
    <path class="cls-1" d="M375.06,487.15c4.16-1.5.87,6.05,4.91,4.92-.71,1.5-.47,3.72,1.01,4.63.56.35,1.44.2,1.93.53.73.48,3.38,11.61,3.97,13.23l-1.01.76,2.18-.03.31,1.45,1.82-.05c.31-.17,1.34-3.12,1.41-3.63.14-.97-1.18-2.49.65-2.16v6.38s1.47-.49,1.47-.49c-.56,1.4,1.29,1.41.98,2.2-2.58,1.8-1.53,7.26-4.73,8.53-2.81,1.12,1.15-3.46.32-4.34-1.29.39-1.79.53-2.94-.25-1.44-.99,1.05-.3.48-1.71l-3.18-.99-.68,1.15.67.83-.48.95c-1.75-1-3.28-1.79-5.39-1.49l-1.25,1.5.49-2.45,1.47.49c.37-1.29-1.3-1.14-1.48-1.82-.48-1.83.32-4.81.53-6.71l-1.02-.56v-.73s1.47-.49,1.47-.49c-1.59.23-.76-1.15-.99-2.11-.11-.47-.99-.28-1.19-1.26-.74-3.57-.65-8.26-1.31-12.07-1.49-8.61-2.25-15.99-3.43-24.54-.33-2.39-1.98-4.75-1.18-7.17,2.21,2.94,1.75,7.03,2.35,10.43.48,2.74,1,5.38,1.4,7.93.45,2.85,2.09,6.99.43,9.14Z"/>
    <path class="cls-1" d="M546.96,336.35l.39-1.73-.7-.65c-4.38-.69-8.78-.38-13.2-.56-.6-.02-1.83.37-1.71-.49l20.62-.5c.1,2.28-4.15.48-3.43,3.44,2.31-1.84,6.14.66,7.55.52.19-.02,1.96-2.35,2.78-2.72.93-.42,3.97-.74,5.13-.77,1.25-.04,1.38.06.07.57-.83.32-6.44,2.19-2.52,2.89,3.07.55,8.37-.12,11.81-.02,14.68.46,29.53,1.08,44.27,1.31,3.08.05,7.12-.59,10.22-.34.74.06,1.54.14,1.73,1.01-2.2.04-4.42-.04-6.62,0-18.13.41-38.77.23-56.96-1.01-1.6-.11-4.65.38-5.86.05-.6-.16-.19-1.92-1.28-2v3.93c-1.17.13-1.5-.58-.99-1.47-2.26.54-4-1.25-6.16-1.04-.94.09-.69,1.05-.99,1.06-.79.03-2.19-1.11-2.87-1.04-.36.04-.4.92-.81,1.2-.97.67-2.41.55-2.43,2.27-1.42-.51-1.03-1.88-.48-2.94-.75-.11-1.44-.43-2.21-.5-9.46-.85-20.47-.66-29.95-1-23.7-.84-47.59-.91-71.21-2.43-2.99-.19-6.13-.95-9.12-1.23,1.17-.74,4.3-.82,5.64-.78,24.62.72,49.69,2.66,74.15,3.51,11.71.41,23.48.03,35.13,1.45Z"/>
    <path class="cls-1" d="M686.47,404.63c-.37,2.14.84,4.33,2.19,5.91,1.45,1.7,2.7.8,1.74,3.42,2.82.26,4.12,3.3,3.43,6.06-.1.38-.97.32-.99.61-.03.52.57,1.5.54,2.41-.07,2.9-.38,5.65-.05,8.61l-3.46.28.03,2.66c.68-.1,2.91-.06,2.94.74.05,1.18-2.24.17-2.63.28-1.86.51.28,4.84,1.17,3.9l-.98-1.96c.69-.08,1.5.16,2.14,0,.58-.14,0-1.21.8-.99.06,2.81.57,5.33-2.94,5.4l-.25-1.96-1.73,3.42-1.46-.97c-.07.73.25,1.71-.13,2.34-.07.12-2.03,2.01-2.33,1.59.8-2.42-1.79-1.97-1.97-3.69-.27-2.61,2.33-4.89,2.42-5.46.12-.8-1.62-1.21.04-2.63l-1.96-.49,2.94-1-.07-.92c-1.49-.05-1.35-1.94.07-2.26l-1.89-.81c-.21-.23-.14-2.52-.09-3.14.46-6.11,1.34-11.44,1.44-17.72.02-1.18-.69-2.38-.44-3.63h1.47Z"/>
    <path class="cls-1" d="M700.17,330.52c1.54,1.31-.58,12.36-1.17,14.69-.16.64-.91,1.15-1.12,1.83-1.17,3.84.29,3.8-3.22,7.34-.78.79-2.6,1.91-3.51,3.12-1.15,1.53-1.93,3.3-2.98,4.89-1.11.21-.68-.48-.73-1.22-.3-4.21.36-8.38.71-12.56,1.06-1.57,7.4,2.26,8.61-1.2-2.06-2.03-7.43-.45-9.12-1.69-1.51-1.1.36-3.45.86-4.63.22-.52.69-.47-.06-1.07l-35.38-1.22c.23-.74,2.65-.66,3.37-.68,6.51-.21,12.63.44,19.06.5,3.45.03,9.57.23,12.7-.06,2.34-.21,1.01-2.03,1.69-2.47,1.73-.42,3.67-1.05,5.17.26.64,1.96,1.11,4.48.64,6.52-.27,1.16-1.42,1.62-1.36,2.8,2.83-.75,3.61.69,3.93-3.2.22-2.69-.67-2.93-.98-4.43-.05-.26.74-.17.97-.61.72-1.41.02-5.72-2.16-5.55-.27.02-.23.91-.61,1.01-2.18.54-7.2-.4-8.51-2.44l13.21.05Z"/>
    <path class="cls-1" d="M542.06,245c1.8-1.12,3.05.06,4.41,1.23-1.25,1.08-2.64.38-3.92-.25-.33,3.04.25,6.09.39,9.09.67,14.18,2.62,29.92,5.32,44.01.72,3.76,1.86,7.17,3.14,10.75,3.81-4.23,2.66-11.12,2.92-16.47.06-1.16.49-2.24.53-3.4.3-8.91-.27-17.88-.02-26.79.85.43,1.55,3.07,1.68,3.88.41,2.66-.53,6.14-.21,8.89l.97-2.94c1.23,3.33-.66,6.06-.98,9.08-.66,6.16.39,14.1.02,20.65-.27,4.81-.73,12.76-1.65,17.28-1.33,6.61-4.47-3.23-5-5.27-3.95-15.1-5.2-30.92-6.64-46.41-.78-8.42-1.93-16.8-1.96-25.3l.98,1.97Z"/>
    <path class="cls-1" d="M484.58,484.21c1.24,1.15-.04,6.22.16,7.53.07.47.74,1.03.86,2.02.22,1.78-.3,3.46-.52,5.18l1.38.07c.83,2.25.27,3.71-.71,5.77-.36.75-2.07,2.68-2.12,2.86-.23.96,1.34,2.45-.47,2.83.35.55.98,2.72-.29,2.24-.36-.78-1.86-.8-2.12-1.1-.58-.69.82-1.94-1.57-.85v-1.97s-3.44.5-3.44.5c.07-2.6-.3-4.58-1.47-6.88,4.33.5,1.81-.63,1.23-1.98-.32-.76-.08-1.59-.28-2.09-.21-.53-1.28-.19-.98-1.57-.17-1.03,1.92-1.5,1.95-1.97.02-.27-.78-.87-.77-1.46.05-2.06,2.06-2.19,2.8-2.93.59-.58.62-1.68,1.09-2.11.54-.5,2.58-.76,3.15-1.27.49-.45,1.09-3.74,2.11-2.8Z"/>
    <path class="cls-1" d="M524.87,386.95l.98-1.96c-1.25.29-2.37-.39-2.71.98l-1.22-.98c.31,1.78-2.25.16-1.98,1.96l-.73-1.47-1.27.81.53,1.64c-1.17,0-2.35-.11-3.49.21-.97.27-.9,1.26-1.24,1.29-.98.1-2.01-.79-2.94-.86-1.58-.11-4.69-.19-6.35-.2s-1.16,1.05-1.46,1.06c-.64.02-1.71-.93-2.93-1.04-1.43-.12-2.67.57-3.41.53-.3-.02-.24-.91-.61-1-1.01-.25-2.12.36-3.11.51l.49.97c-1.27.12-2.43-.51-3.69-.53-2.71-.04-4.67,1.31-6.63,2.98-.64-6.65,2.38-4.77,6.59-5.44,1.34-.21,3.43-.74,4.82-1.07,3.27-.78,1.13,0,2.07.05.62.04,1.7-.58,2.72.08v-1.48c1.02.09,2.05.74,3.11.5.37-.08.3-.9.66-.98,5.76-1.26,12.94-3.07,19.11-3.94.4-.06,3.91.43,4.31.57,1.63.57.94,4.61.72,6l-2.36.8Z"/>
    <path class="cls-1" d="M526.83,361.9c-.29,1.45.76,2.5.98,3.73.27,1.54-1.3,3.58,1.97,3.64-2.18,2.56-8.24,4.03-11.59,4.36-1.99.2-3.65-.32-5.29-.25s-3.8,3.77-4.77.85l-.69-.05-1.49,1.97-1.69-.98c.02.25.04.7-.14.83-.79.55-7.34,2.31-8.58,2.49-1.14.17-3.2-.3-4.55.1.8-2.99,5.1-2.23,5.92-2.67.45-.24-.14-1.26.96-1.95,1.34-.84,3.23-1.8,4.54-2.55,3.89-2.22,8.53-4.02,12.41-6.57,1.4-.47.43,2.15.73,2.45h4.91s-.5-.98-.5-.98c1.99-.33,2.48-.47,3.93.98.01-.66,1.95-6.52,2.95-5.4Z"/>
    <path class="cls-1" d="M467.4,429.2c-.15.85-.98.87-1.64,1.05-4.91,1.36-10.14,1.91-15,3.42l-.05,1.42c1.8-.93,3.5-.57,5.21.35l5.35-.34c-2.96,1.93-6.82,1.82-10.22,2.66-.75.18-1.41.82-2.3,1.05-2.66.67-5.47.74-8.08,1.64l-.28,2.27-1.47-.24.98,1.47c-1.95-.44-1.37.96-2.03,1.66-.97,1.05-3.81,4.33-4.71,4.62-.68.22-1.41.11-2.1.1.97-2.42-1.1-4.72,0-7.36l-28.98,5.89c-.23-1.4.29-.82,1.13-1.05,8.9-2.4,18.05-3.92,26.98-5.95,4.37-.99,8.72-2.16,13.11-3.1l.52-1.2-7.01-1.09-3.68-2.22-4.53-.62c3.37-.29,7.06-2.24,10.48-1.47.38.08.26.85.56.88,4.42.54,10.14.31,14.3-1.35l13.47-2.49Z"/>
    <path class="cls-1" d="M572.01,356.01c.15.12,1.24,2.75,1.76,3.4,1.68,2.11,5.1,3.55,2.67,6.41,1.04-.09,2.21.15,3.22.03,5-.59-.77-9.69,4.14-9.85-.99,2.38-.7,3.27-.47,5.64.07.7-.39,1.53-.32,2,.08.57,1.05.9,1.12,1.43.24,1.74-2.78,2.32.15,3.45l-1.5,1.01c1.48,1.8.44,2.93.53,4.39.17,2.83.89,6.08.99,8.82.04,1.07.3,3.71-.76,4.19-.41-.03-2.06-1.45-2.12-1.57-.44-.78,1.53-3.64-3.03-3.83v3.93c-2.72.72-2.66-1.13-3.8-1.98-1.63-1.21-4.7-1.59-6.02-4.16l2.19-2.09c1.4,1.62,1.78.1,2.59,0,1.21-.16,1.86.63,3.31-.61l-.24,1.97c1.24-.22,2.4-.67,3.71-.54,1.18.12.31,1.13,1.2,1.03.11-1.6,1.26-6.72.02-7.62-2.62-1.17-5.27-1.58-7.99-2.33-2.06-.57-2.11-2-5.29-.36.41-.77-.12-2.09.07-2.62.28-.78,2.13-.73,1.4-2.78h.97c-.09,1.54,3.37,1.8,3.84.14.85-2.96-2.64-4.39-3.34-7.27l.97-.24Z"/>
    <path class="cls-1" d="M635.83,383.54c1.81,3.43,2.95,4.32,2.5,8.56-.78,7.33-10.27,5.2-15.4,5.72s-9.57,2.62-14.56,2.87c.1-.73,1.72-1.15,2.34-1.34,2.04-.64,5.71-1.49,7.84-1.98s4.84-.47,7.01-1.1c-.63-1.05-1.7-.87-2.23-2.43-.34-1.01-1.43-6.26-.99-6.92l13.49-3.38Z"/>
    <path class="cls-1" d="M589.15,365.9l1.3,1.89.49-.98c2.5,2.9,6.72,1.6,9.86,2.93l.31-.83,1.37.36-1.47,1.95c2.32-.11,2.79-2.68,5.4-3.23,2.06-.43,12.75,6.76,15.85,7.28l.85,1.35-27.5-3.44c-.29-.64,2.06-.53.98-1.47-.24-.21-2.71.98-3.67.99-1.65,0-6.77-1-6.67-3.18.01-.26.91-.2,1-.6.19-.8-.26-1.88.24-2.63l1.67-.4Z"/>
    <path class="cls-1" d="M532.72,355.51l.99,7.86,1.97-.49.24.98c2.36-2.19,3.11-5.97,6.14-7.37l-2.45,5.4,1.96-.49c-.1,4.19,3.47-2.03,5.15-1.47,2.17.72-1.19,1.41-1.22,1.95l1.77.47c.53,2.87-.73,3.9-2.76,5.67l-10.48,2.29c-.94.09-.68,1.74-.83,1.88-1.33,1.17-3.43-3.72-2.92-4.41l1.96-.25-.97-.23c-.05-3.68.06-7.41.49-11.07.09-.73.37-1.49.98-.73Z"/>
    <path class="cls-1" d="M543.7,381.23c-2.37,2.34-5.44,3.36-7.04,5.01-1.06,1.1.04,2.01-3.27,2.16-3.01.13-.47-4.64-.62-6.61-.07-.95-.92-.65-1.01-1.06-.25-1.04.13-2.47,0-3.59,2.87,1.51,4.69-.6,7.35-1.75.75-.32,1.83-.01,2.37-.34.3-.18.46-1.33.84-1.35.19-.01,1.86,1.52,3.47.1,2.54,3.15.05,5.33-2.07,7.43Z"/>
    <path class="cls-1" d="M518.97,528.41c-2.01,2.04-6.51.82-9.09.94-4.8.22-9.72,1.21-14.48.54l.49,1.47-1.19-.96-5.19.96c1.99-1.31-.11-4.45.5-5.4.03-.04.65.41.98.21.6-.37,3.34-3.97,4.57-4.95.35-.28,1.23-.09,1.77-.46.98-.67,2.03-2.41,2.01-3.63h-1.97c0-2.52,2.66-3.81,3.69-5.9l.25,4.42,3.92-1.96c.57,2.14-1.55,3.01-1.98,3.79-.41.73-.42,1.77-.86,2.45-2.11,3.28-5.43,5.28-7.47,8.5h24.07Z"/>
    <path class="cls-1" d="M558.69,341.34c.05.02.06.73.43.88l37.21,1.01v.99s-99.96-2.22-99.96-2.22c-.33-1.14,1.05-.7,1.72-.73,18.32-.74,36.84,1.67,55.04,1.02,1.35-.05,5.3-1.05,5.56-.94Z"/>
    <path class="cls-1" d="M629.42,432.71c.23,1.34-.07,2.7.12,4.05.57,4.01,1.68,7.84,2.35,11.9.45,2.7-.04,5.84,1.53,8.26l-1.72,1.16-.74-.62-1.95-5.67c-.19,4.29.66,8.7,2.45,12.51l-1.72,1.24c-2.69-2.37-1.24-4.59-1.47-7.13-.75-8.07-1.55-11.62-.88-20.02.05-.68-.54-1.58-.37-2.51.09-.49,1.54-.02,1.01-1.29l-1.97-.25c1.32-.36,1.06-.95.99-2.21l2.38.57Z"/>
    <path class="cls-1" d="M597.38,380.28c3.49,1.29,8.4,1.41,12.57,2.39.49.11,1.48.15,1.36.83-1.49.05-2.99,1.07-4.29,1.37-1.59.36-6.04,1.04-7.75,1.09-2.84.09-4.58-.98-7.28-1.01l-1.05,2.47-2.98-1.46c.44-2.39-2.18-3.9.8-5.6,2.21-1.26,2.56.14,3.68.22,1.77.12,1.35-1.62,4.94-.3Z"/>
    <path class="cls-1" d="M623.1,420.85c.59.79-9.37,5.29-10.78,4.47l-.03,1.42c-2.33-.51-3.09-.91-4.21,1.51-1.71-.37-2.43-1.2-2.18-2.98l-1.71,1.96-1.04-1.99c-1.94.9-2.81-.9-2.98-.94-.82-.19-5.79-.24-6.05-.5v-1.47c4.85-1.06,9.65-.21,14.49-.5,2.89-.17,5.95-.46,8.78-.65,1.91-.13,3.55-1.5,5.72-.32Z"/>
    <path class="cls-1" d="M700.71,465.54l-2.94-1.23,1.96-.74c-1.11-1.54-3.28.39-2.95,1.97l-3.92-.49,2.45,2.21-2.21,1.22c-1.26-4.3-2.7-.49-2.98-.47-1.02.07-3.04-.79-4.9-.53-1.54.22-2.76,1.57-4.64,1-.23-3.59-1.63-6.48,3.6-6.69,2.08-.08,4.96,1,6.45,1.06,2.6.11,7.38-.91,9.77-.19,1.41.43.24,1.87.32,2.87Z"/>
    <path class="cls-1" d="M639.31,431.15c1.12,5.08,2.58,10.78,2.94,15.97.21,3.13-.75,7.06-.45,9.76.16,1.45,1.3,2.51,1.39,3.48.17,1.89-2.35,3.81-3.87,4.68-.35-.43,1.85-6.15,1.96-7.16.22-2.19-.76-10.02-.94-12.81-.07-1.13.89-3.41-.52-4.09-.53,2.98.18,6.64-.57,9.51-.16.6-.75,1.07-1.17.32-.25-.44-.54-6.41-.55-7.54,0-1.06.72-2.33.75-3.06,0-.22-.84-.15-.92-.53-.37-1.56.31-6.18.98-7.79.23-.56-.38-.93.98-.74Z"/>
    <path class="cls-1" d="M481.14,516.63c-.2,1.38,1.65,1.7,1.86,2.07.41.7.53,3.86,1.9,4.82l2.14-1.25-1.96-1.22c2-.84,2.57.99,2.73,1.01,2.13.24,2.93-2.51,3.9-2.97,1.39-.66-.28,1.93.98,1.95l1.72-.73c-1.4,1.74-3.48,2.1-3.44,4.67-4.1-1.91-8.74,5.67-12.27,1.22-.39-1,1.76-.54.97-1.7-.03-.04-.67.13-.95-.37-1.11-1.96-.67-4.08,1.95-3.58.51-1.96-2.34-.11-1.96-1.71.1-.43,1.88-2.71,2.44-2.22Z"/>
    <path class="cls-1" d="M649.63,471.93c.44,1.55-1.67,1.06-2.59.86-1.06-.23-3-1.43-4.01-1.37-.29.02-.23.89-.61.99-3.19.8-5.16-1.47-6.22-1.36-.51.05-1.05.7-1.61.74-2.45.18-14.47.69-16.08,1.59-.54.3-.16,1.17-.39,1.39-.28.27-1.79.11-2.37.6l-.44-1.92.93-.53-1.97-.25c0-.3,5.07-1.48,5.78-1.6,8.68-1.4,19.19-1.7,27.51.75.68.2,1.4.11,2.09.12Z"/>
    <path class="cls-1" d="M415.75,522.1l.56,2.38-1.97-.29-1.45,3.04c-2.24-.75-1.91.58-2.32.69-1.35.36-2.72-.55-3.87-.53-2,.05-1.01,1.3-4.25-.02-2.61-1.06-1.76-.51-4.39-.72-2.87-.23-5.14-.97-8.28-.22,2.66-4.1,7.48-1.37,11.58-1.92.97-.13.64-1.08.93-1.03.44.08,2.37,1.07,3.08,1.31,1.72.58,2.74-.3,3.81,2.13h.72c.36-2.73,4.66-1.39,3.94-4.91l1.88.08Z"/>
    <path class="cls-1" d="M523.88,422.81c-.78,1.3-3.27.92-4.73,1.38-.51.16-2.16,1.45-3.34,1.51-1.92.1-2.61-1.23-4.46,1.52h-.72s-.76-1.47-.76-1.47c-.6-.12-3.36,1.82-4,1.89-.72.08-2.46-1.58-3.61-1.4-.38-1.84,1.76-.94,2.34-1.14.06-.02.04-.63.82-.86,5.39-1.63,11.18-1.03,16.25-3.39.44,1.4.46,2.1,2.2,1.97Z"/>
    <path class="cls-1" d="M624.54,414.41c-.9,1.26-5.91.45-7.59.52-2.41.1-5.02.93-7.59.51-1.29-1.05,3.72-2.26,4.08-2.45.92-.47,2.18-1.18,3.25-1.76.98-.52,1.2-1.87,2.72-1.71.14.01.45,1.67,1.72,1l-.49-1.96c1.54.13,4.51,4.97,3.88,5.85Z"/>
    <path class="cls-1" d="M634.86,382l-8.94,1.62c-1.43.26-2.33,1.38-4.42.85-.33-.08-.35-.67-.54-.79-.58-.36-2.3-.02-1.06-1.68.43-.57,12.62-3.41,13.83-3.39,1.59.03,1.23,2.29,1.14,3.38Z"/>
    <path class="cls-1" d="M549.58,351.93c.38.61,1.64.51,1.81,2.4.19,2.03-1.28,4.62-1.37,5.93-.06.86,1.83,2.71,1.38,4.09h-2.46c.72-2.03-.9-3.66-1.03-5.15-.14-1.69,1.59-5.18-.93-5.66l.97-1.95-3.92,1.47c.32-3.45,1.77-4.02,4.9-4.42.22.9.21,2.59.64,3.3Z"/>
    <path class="cls-1" d="M604.44,550.51l.49,2.94c-1.51-.2-2.45,1.64-3.68,2.46l-.24-1.97-4.42.5,1.96.97c-1.31,0-3.45.26-4.41-.74-.51-.53-.47-1.56-.99-1.96-.83-.63-3.08-.24-3.92-1.48-.74-1.45,2.77-.21,3.21-.22,1.04,0,1.95-.5,2.88-.47,1.7.05,3.25,1.17,5.45.97,1.4-.13,2.28-1.12,3.68-1.01Z"/>
    <path class="cls-1" d="M415.33,532.84c.03,1.13-.55,2.18-1.71,2.27-2.04-2.3-3.61.03-5.42-.02-.5-.01-1.04-.63-1.52-.63-4.78.04-9.23,1.45-14.14-.19l-.54,1.03c-1.09.23-1.71-1.88-.98-1.98,1.19-.4,2.59.39,3.47.43.18,0,.57-1.17,3-1.22,5.76-.12,12,.71,17.84.3Z"/>
    <path class="cls-1" d="M578.41,402.67l-1.56,2.39-1.6-.45c-1.63,1.99-8.21.67-10.61,2.25-.48.32-.69,1.54-1.19,1.6-.39.04-1.39-.75-2.1-.79-1.67-.1-4.88,1.46-3.24-2.45.4-.95,1.57.05.66-2.56,1.24.37.71,1.9,1.46,2.7,1.17,1.24,6.29.43,7.1-1.16l4.2.42c-.63-1.19-4.29.24-3.92-1.96,3.39-.81,6.69,3.62,9.05-.35l1.76.35Z"/>
    <path class="cls-1" d="M654.42,471.56c.31.31.2,1.53.87,1.83h.72c-.01-1.6,1.84-1.81,3.1-1.48.97.25.01,2.24,2.79.5.22,2.03,2.23,2.11,3.72,2.94l.51-1.02,1.63.75-.92,2.04-1.49-.31-.25,1.96c-.41-.63-2.4-1.22-2.61-1.58-.65-1.12,1.02-2.3-2.06-1.85l.74,1.46c-1.71.05-3.95-2.61-4.48-2.82-.4-.15-1.25.2-2.27-.22-1.91-.79-2.3-3.13-4.81-2.36.08-1.75,4.51-.14,4.79.13Z"/>
    <path class="cls-1" d="M555.32,253.84l-1.49-.82c-.3-1.64.29-3.55.32-5.04.04-2.18-2.01.72-3.23,1.2-.61.24-4.94,1.29-4.91,0,.02-.73,5.32-2.46,6.36-2.72v-1.45s-2.93,0-2.93,0c2.84-.43,3.55-2.94,5.89-3.94.43,4.32.16,8.43,0,12.77Z"/>
    <path class="cls-1" d="M652.08,533.82c.05.93.23,1.01-.74,1-2.32-.02-5.08-.99-7.6-.5l1.71.48c.8.66-.6.54-.99.52-1.22-.07-2.46-.52-3.42-.51-3.2.02-7.61.68-10.79.52-1.24-.06-2.75-1.07-3.43-1.03-.27.01-.22.91-.61,1-.97.24-5.96.54-6.06-1.22,1.02-.73,2.51.1,3.6.05,1.83-.09,4.33-.87,5.96-.82,1.27.04,2.58,1.03,3.47.98,4.44-.27,8.71-1.24,13.2-.91,1.8.13,3.73.81,5.7.45Z"/>
    <path class="cls-1" d="M732.15,495.01l1.47-2.21c-1.64-.96-.42-2.18-.6-3.32-.3-1.9-2-4.68-1.91-6.01s1.25-4.53,1.52-5.93c.29-1.49-1.18-3.39.74-3.65l1.06,7.2c-.39,2.09-.36,4.21-.33,6.33.04,2.7,1.96,7.07-1.94,7.59Z"/>
    <path class="cls-1" d="M635.87,397.76l2.46,27.02c-.95-.19-.84-1.02-.99-1.73-1.4-6.55-2.23-15.82-2.47-22.56-.04-.99-.49-3.18,1-2.73Z"/>
    <path class="cls-1" d="M640.79,344.22c.8.61,0,.89-.73.98-2.26.29-5.98.09-8.38.02-1.4-.04-2.6-.51-3.89-.53-10.08-.21-20.26.62-30.23-.72,4.23-.14,8.81-.55,13.03-.49,4.63.06,9.9.7,14.71.76,5.17.06,10.29-.45,15.49-.02Z"/>
    <path class="cls-1" d="M593.14,328.5c-.34.99-2.36.91-3.19.95-2.77.14-4.98-.46-7.39-.48-4.18-.04-8.53,1.47-12.7,1.03-.33-.03-.26-.9-.64-1-1.24-.32-5.14,1.03-5.57-.26-.37-1.13,1.09-.7,1.72-.73,9.23-.48,18.51,1,27.76.5Z"/>
    <path class="cls-1" d="M550.66,542.17c.97-.27,1.85-2.17.25-2.46l-.98.98-.5-1.47,3.16-.02,1.03,2.96c1.53-1.04,4.46-.77,6.38-.5.99.14,3.17.49,3.68,1.47h-22.36s-.73-.98-.73-.98c2.67-.48,7.75.65,10.07,0Z"/>
    <path class="cls-1" d="M621.15,478.76c.16.21,1.29.19,1.67.47.51.39.17,1.22.34,1.47.06.09,1.47-.43,1.92.8l-.98.24,1.47.99-.98.97,1.71-.98c1.18.65.65,3.04,2.7,2.46-.7,3.25-1.56-.11-2.06-.39-.71-.4-2.09.22-2.89-.33-.44-.3-.3-1.29-.57-1.62-.36-.44-2.46-.5-3.13-1.77-.47-.89-2.06-6.32-.19-5.48,1.68.62.88,3.02.99,3.16Z"/>
    <path class="cls-1" d="M621.98,506.94c.23.34.66,2.58.62,3.04-.37,3.88-6.14,1.34-8.82,2.23-.22-1.24.19-.91,1.08-1.14,2.11-.54,2.26.79,4.32.64.55-1.39-2.3-2.67-1.96-2.94,1.72-.18,2.8-1.23,2.95-2.95.08-.06,1.74,1,1.82,1.12Z"/>
    <path class="cls-1" d="M429.58,438.04l-1.7,1-23.84,5.38c-.24-1.37.29-.83,1.07-1.11,4.91-1.75,14.78-4.08,20-4.99,1.15-.2,3.11.16,4.46-.28Z"/>
    <path class="cls-1" d="M520.45,428.7l-.78,2.97c-2.77.36-5.01-.83-7.58-1.51.36-1.35,1.93-.71,2.82-1.12.17-.08.21-.68.47-.83,2.06-1.22,3.06.4,5.06.49Z"/>
    <path class="cls-1" d="M511.11,418.88c.25,1.43-.34.8-1.14,1.04-2.51.77-4.54.9-6.91,1.46-5.65,1.34-11.22,3.09-17,3.87.93-1.6,3.5-1.19,5.03-1.6.98-.26,1.82-.88,2.81-1.12,5.61-1.35,11.62-2.03,17.21-3.66Z"/>
    <path class="cls-1" d="M425.25,325.69c-.1.05-.08.72-.41.84-2.52.73-2.1-2.33-1.33-2.48,3.68,1.02,7.52.23,11.24.5.88.06,1.59-.14,2.18.76l-7.12.77c-.7-.05-4.26-.54-4.57-.39Z"/>
    <path class="cls-1" d="M729.7,529.39l.98-1.97,2.94.99c.25,2.2-1.54,1.61-1.72,1.92-.09.15-1.1,3.12-1.14,3.37-.32,1.97,2.15,3.75.15,5.51l-1.62-5.24c2.76-6.42-.68-3.69-3.23-4.21-.6-.12-.94-1.13-2.03-1.35s-2.51.12-3.67-.01c-.12-.7.87-.71,1.36-.83,2.04-.52,7.62-.9,7.97,1.82Z"/>
    <path class="cls-1" d="M604.44,396.78l-6.15,2.2c-1.9-.83-2.62.78-4.04,1.12-2.92.69-6.45,1.03-9.46,1.59-.12-.71.85-.66,1.37-.83,5.67-1.84,12.43-3.09,18.28-4.07Z"/>
    <path class="cls-1" d="M569.07,552.49l-2.45.98c.07.86,1.21.42,1.98,1.2,1.8,1.83-2.52.4-2.85.38-.9-.07-1.68.42-2.57.37-.47-3.36,3.37-3.93,5.89-2.94Z"/>
    <path class="cls-1" d="M655.52,559.36l-3.21,1.18c-2.15-.03-4.95,1.4-5.87-1.19-1,1.43-2.69.88-4.15,1.03l-.29,1.46-5.63-.53,2.95-.99-1.47-.97c1.84-.54,4.69.54,6.16.44.67-.05,1.21-.78,1.59-.79,3.31-.13,6.62-.06,9.92.36Z"/>
    <path class="cls-1" d="M482.13,425.76l-8.33,2.71-5.42.72c-.07-.63,1.16-.91,1.65-1.09,3.77-1.31,8.12-1.77,12.1-2.34Z"/>
    <path class="cls-1" d="M565.14,527.92c.09,1.23.11.84-.73.97-4.17.63-8.32-.39-12.52.01-.72-.72.04-.89.72-.98,1.85-.25,3.45.42,4.92.39,2.35-.04,5.11-.78,7.61-.39Z"/>
    <path class="cls-1" d="M692.12,542.17c-.17-.04-.75-.67-.74-.98.79-1.03,6.7.38,8.16.44,1.17.04,4.89-1.58,4.61.54-3.28-.55-9.11.74-12.03,0Z"/>
    <path class="cls-1" d="M562.2,538.73l-.98,1.47,2.45.49h-7.36c.5-3.52,3.34-1.8,5.89-1.95Z"/>
    <path class="cls-1" d="M560.23,552.48l-1.01,3.11,1.51,1.3c-1.75-.42-3.93-.16-4.33-2.29.56-2.35,1.59-2.36,3.83-2.12Z"/>
    <path class="cls-1" d="M645.7,478.81c.15.76-.87.45-1.2.99-.52.84-1.03,2.98-1.27,4.05l-1.21.37-1.19-2.42c2.2-.84,1.41-3.81,4.87-2.99Z"/>
    <path class="cls-1" d="M652.58,486.17c.08-.29-.24-.83.28-1.03l9.54-2.4c-.76,1.89-2.99,1.5-4.53,2-1.74.56-2.81,1.11-5.29,1.43-.07.26.05.67,0,.98-2.53-.12-5.07,1.56-7.85,1.47-.24-1.43.34-.8,1.14-1.04,2.81-.85,4.08-1.06,6.72-1.41Z"/>
    <path class="cls-1" d="M721.83,632.55c-.08,1.45-5.05,7.79-6.38,6.87-.02-2.06,2.89-3.15,4.26-4.53.12-.12.67-2.7,2.13-2.34Z"/>
    <path class="cls-1" d="M642.75,337.83v.98h-9.58c-.1,0-1.4-1.32-1.23-1.47.67-.26,1.13.49,1.23.49h9.58Z"/>
    <path class="cls-1" d="M566.13,334.39c-.08-2.43,2.63-.56,3.72-.52,1.36.05,3.02-.53,4.87-.46.59.02,3.02.26,3.2.98h-11.79Z"/>
    <path class="cls-1" d="M469.36,417.9c-.66,1.92-1.88.96-2.96,1.21-1.65.37-3.33,1.01-4.95,1.46-.97.27-1.17.55-1.91-.46l9.82-2.2Z"/>
    <path class="cls-1" d="M618.19,393.34c-2.18,2.05-6.44,2.01-9.33,2.45.1-.77,1.8-1.05,2.45-1.23,2.11-.6,4.68-1.09,6.88-1.22Z"/>
    <path class="cls-1" d="M643.74,338.81c-.04-.32.65-.98.74-.98h7.37l.5.98-.51.5c-.34.04-.79-.5-.97-.5h-7.12Z"/>
    <path class="cls-1" d="M422.46,498.46c1.3.65,1.83,4.62.48,4.9-1.52.32-2.19-4.26-.48-4.9Z"/>
    <path class="cls-1" d="M581.84,520.55c-.32,1.08.91,4.31-.98,3.93v-1.97s-1.96.49-1.96.49l-.49-2.46h3.43Z"/>
    <path class="cls-1" d="M400.1,448.84l-3.92,1.72-4.91.73c.1-.77,1.8-1.05,2.45-1.23,1.97-.56,4.35-.97,6.39-1.22Z"/>
    <path class="cls-1" d="M539.6,412.5l-6.19,1.9c-1.22-.08-2.71,1.05-3.63-.19,3.27-.55,6.43-2,9.82-1.71Z"/>
    <path class="cls-1" d="M586.76,466.04l1.47-.5c.34,1.79,1.49,2.82-.25,4.42l-1.58-3.81.36-1.59v1.48Z"/>
    <path class="cls-1" d="M628.19,425.6c.1.22,1.28-.07.8,1.13l-1.98-.82-.47-7.53c.64-.14.79.92.85,1.34.31,2.1-.12,3.81.79,5.87Z"/>
    <path class="cls-1" d="M728.71,555.43l-.22,1.5-.59.39c-2.51.37-3.41.16-2.62-2.38l3.43.5Z"/>
    <path class="cls-1" d="M501.29,425.76l-9.33,2.45c2.05-2.1,6.56-2.38,9.33-2.45Z"/>
    <path class="cls-1" d="M669.77,479.78h-2.46s.5-3.44.5-3.44c1.91.03,2.15,1.91,1.96,3.44Z"/>
    <path class="cls-1" d="M690.4,442.95c.81-.15,3.27-.1,2.95,1.22l-3.18,2.21c-1.81-1.13,1.19-1.63,1.21-2.21l-.97-1.22Z"/>
    <path class="cls-1" d="M369.16,588.83c-.87.93-3.85-4.73-2.21-5.4l2.21,5.4Z"/>
    <path class="cls-1" d="M717.41,526.94l-1.22,2.92c-1.29-.53-2.08-1.32-1.28-2.69l2.5-.23Z"/>
    <path class="cls-1" d="M582.33,387.93c-1.88.24-3.66-.22-3.43-2.45.52-.52,3.85,1.09,3.43,2.45Z"/>
    <polygon class="cls-1" points="444.31 340.29 445.55 339.28 453.65 340.29 444.31 340.29"/>
    <path class="cls-1" d="M626.55,560.83c.8.63-.06.89-.73.98-1.75.22-3.85-.16-5.65,0-.06-.78,1.25-.8,1.79-.91,1.59-.33,3.01-.27,4.59-.06Z"/>
    <path class="cls-1" d="M492.45,412c.36,1.62-1.78.81-2.97,1.2-.92.3-1.36,1.4-2.43,1.25v-1.96s5.4-.49,5.4-.49Z"/>
    <path class="cls-1" d="M927.65,1154.68l.11-2.58,1.35-3.3c-.74,1.99,1.44,5.54-1.47,5.89Z"/>
    <path class="cls-1" d="M579.88,565.74v1.97c5.66-.4,6.72,6.02,1.11,7.25-3.7.81-12.03.98-12.34-3.95,1.4-2.77,4.14-2.31,6.34-3.03,1.04-.34,1.88-1.69,3.42-1.25l-.5-.97h1.97Z"/>
  </g>
</svg>