<?xml version="1.0" encoding="UTF-8"?>
<svg id="Layer_1" data-name="Layer 1" xmlns="http://www.w3.org/2000/svg" xmlns:xlink="http://www.w3.org/1999/xlink" viewBox="0 0 1200 1200">
  <defs>
    <style>
      .cls-1 {
        fill: #2e130c;
      }

      .cls-2 {
        fill: #14141d;
        stroke: url(#linear-gradient);
        stroke-miterlimit: 10;
      }
    </style>
    <linearGradient id="linear-gradient" x1="-23.76" y1="600" x2="1227.3" y2="600" gradientUnits="userSpaceOnUse">
      <stop offset="0" stop-color="#543713"/>
      <stop offset="1" stop-color="#182b17"/>
    </linearGradient>
  </defs>
  <rect class="cls-2" x="-23.26" y="-28.99" width="1250.05" height="1257.98"/>
  <g>
    <path class="cls-1" d="M834.17,321.48c8.48,5.83,20.78,16.97,28.43,24.22,20.82,19.73,34.42,41.89,32.18,71.78-.93,12.42-8.28,29.4,1.72,39.89,5.35,5.62,12.44,9.81,18.43,15.11,14.93,13.23,21.63,31.86,11,50.6-1.06,1.87-5.14,5.87-5.55,7.94-.37,1.89,3.42,6.2,4.48,8,15.47,26.06,36.54,40.09,57.84,60.23,45.67,43.19,11.19,76.66-12.47,118.4-14.66,25.87-21.73,47.04-26.93,76.38-4.97,28.06-.19,54.92-23.01,76.27-33.39,31.24-77.54,24.06-118.99,18.36-28.51-3.92-56.49-10.49-84.77-15.18-27.63-4.58-56.37-9.76-84.19-4.03-2.62.54-4.96,3.08-8.16,1.25-.82-.59-.23-3.69-.52-4.97-.77-3.39-1.5-.66-.91-5.53.24-1.94.1-4.26.47-6.25,4.28-2.8,9.02-.63,12.98-.77,6.33-.23,13.79-1.99,20.12-2.01,7.26-.02,17.99,1.23,25.44,2.06,39.96,4.47,80.76,15.25,121.54,20.67,36.2,4.82,78.56,12.92,107.96-13.99,17.26-15.79,15.85-28.61,18.83-50.12,3.38-24.38,7.86-49.91,17.3-72.73,9.65-23.31,24.28-45.15,37.77-66.87,10.09-22.93,10.88-36.59-6.85-55.17-11.77-12.33-26.39-22.99-38.61-35.18-6.12-6.11-11.7-14.67-17.39-20.18-2.91-2.81-6.82-3.91-9.94-6.18-3.02-2.2-5.05-7.65-9.56-1.68-3.95,5.23-8.23,16.78-8.69,23.33-1.95,27.43,20.28,62.02,35.26,83.45,5.71,8.16,15.01,21.93,21.75,28.57,2.11,2.08,7.15,3.26,6.72,7.31-.04.36-1.55,5.39-1.71,5.74-1.31,2.73-4.6,3.54-6.62,4.81-1.87,1.18-2.47,4.45-6.43,1.58-2.59-4.62-3.56-10.04-6.16-14.63-6.12-10.78-16.66-22.55-23.66-33.36-15.93-24.64-32.49-53.66-30.55-84.14,1.76-27.75,21.42-40.11,35.13-60.79,2.23-3.36,3-7.62,2.38-11.62-2.53-16.42-27.64-24.77-35.63-38.83-11.55-20.33,2.19-41.21-2.87-63.54-6.21-27.4-40.28-56.63-63.21-71.62-46.4-30.32-100.34-22.76-152.83-32.32l-34.84-1.38-65.43,1.37-1.34-16.09c3.35,3.38,6.09,1.42,9.72,1.28,43.06-1.66,83.66.39,127.39,4.82,17.71,1.79,35.92,3.26,53.66,5.37,30.73,3.64,54.08,13.01,79.32,30.37Z"/>
    <path class="cls-1" d="M378.09,316.03c.56.19,2.81,5.76,2.82,6.21.06,1.55-4.62,6.08,1.36,5.03l-.38,2.05c6.45,3.33,3.51-.54,3.74-.71h3.36s0,2.67,0,2.67c-4.31.84-8.83-.52-13.05.04-18.69,2.5-51.41,18.68-67.41,29.18-27.64,18.14-65.77,57.07-77.71,87.98-7.26,18.81-14.26,42.92-19.29,62.55-13.6,53.13-19.5,123.68,15.79,169.4,32.86,42.58,84.64,83.63,129.12,114.38,23.81,16.46,69.66,38.92,98.69,42.22,8.91,1.01,19.18-1.76,28.48,1,15.8,4.68,16.14,20.7,8.98,33.2-4.59,8.01-11.42,13.55-13.93,22.97-3.19,11.98,2.89,20.86,6.62,31.38,22.46,63.5,53.93,121.68,79.12,183.84,6.97,17.21,12.95,34.52,19.98,51.8,11.83,29.07,20,59.65,31.5,88.57,2.15,5.41,4.61,10.57,6.52,16.28.79,2.36,3.41,3.85,1.37,7.01,2.66-.56,1.65,1.03,2.22,1.78,2.56,3.32,1.05,2.27,2.1,5.65.37,1.21,1.78,2.02,2.24,3.13,5.74,14.05,11.27,28.24,16.41,42.62,1.73,4.83,6.47,10.98,3.19,15.57.8,1.81,2.65-.12,3.35.35.27.18.81,3.65.76,4.4-.1,1.45-1.73.5-1.41,1.97l2.67.35c-1.6,3.16,1.92,3.97,2.68,7.05l-2.01.33v2.01s3.03-.02,3.03-.02c.47,3.23,2.64,6.83,4.46,9.63,2.41,3.7,7.91,9.72,11.32,12.16,1.41,1.01,6.2,1.67,6.67,2.72-2.88.77-2.1,2.83-3.05,4.32-.51.8-1.82.97-2.36,1.67-.91,1.19-.43,3.2-1.97,4.11-1.46.73-9.73-3.66-11.4-.38l1.35.34-3.04,3.68-.95-.04c-.15-2.5-4.61-2.42-5.3-4.43-.84-2.45.72-5.44.61-7.93-3.6-15.84-11.62-30.41-16.06-45.85l5.94-2.45c-3.29-4.84-6.87.5-9.52-5.24-9.23-20.02-15.37-42.75-25.48-62.39l-19.25-47.88,1.93-2.89-3.25-.79-10.1-31.22,1.27-1.2c-.75-.96-2.47-1.3-3.01-2.36-1.58-3.09-2.94-9.87-4.52-13.59-3.29-7.78-7.55-15.6-10.25-23.96-5.65-17.52-9.48-30.61-17.53-47.57-5.78-12.16-11.13-25.03-16.67-37.64-19.88-45.2-43.17-88.77-58.67-135.87-5.88-17.87-6.7-27.09,1.2-44.34,1.99-4.35,3.01-4.63,5.07-7.68,1.84-2.71,6.52-8.88,7.42-11.38,3.66-10.16-20.38-7.61-25.48-7.99-30.35-2.26-73.8-21.74-99.55-38.64-12.83-8.42-25.25-19.01-37.65-28.09-19.1-13.98-38.61-26.65-55.68-42.93-23.66-22.57-55.19-52.04-66.02-83.57-20.14-58.66-8.46-122.2,8.53-179.94,8.05-27.35,15.77-50.08,33.76-72.92,31.36-39.84,79.59-77.31,129.94-88.06,1.78-.38,4.82-2.21,6.36-1.69Z"/>
    <path class="cls-1" d="M321.91,605.99c-.26-4.77-2.8-8.2-3.3-12.8-.74-6.79,1.08-7.1-1.91-14.19-.46-1.09-1.39-1.01.19-2.18.35-.13.77,1.99,1.37,2.65,2.74,2.98,6,4.71,9.55,6.58.54.28,1.51.13,2.16.16.5,2.25-1.91.46-1.34,2.68,1.38-.34,1.89.51.67,1.02-1.62.69-3.59-.79-5.37-.35-.21,2.76,2.81-.35,1.99,3.66-.65,3.2-6.09,3.61-.66,9.42l-1.34.66c.88.83,1.76,1.4,2.01,2.7.51,2.76-1.09,14.41,2.43,15.67,3.04,1.1,1.92-1.2,2.41-1.76.7-.81,4.16-.38,3.23-4.2,2.25,2.43,5.6,1.86,8.71,2.02l-2.01,1c2.14,2.58,4.93.11,6.75,0,2.2-.12,5.84,1.85,6.86,1.58,1.07-.28,3.15-3.03,4.29-3.16.78-.09,1.34.96,1.91.98.41.01.94-.83,1.32-.83.49,0,1.73,1.29,2.84,1.64.98.3,2.23-.1,3.1.13.65.18.4,1.28.47,1.32.2.15,3-2.27,4.66-1.34l.68-23.46-5.02,1.34c-1.68-4.08,3.39-1.44,4.41-3.12l.62-6.27c-2.62-.19-6.59,1.09-7.38-2.34,1.37-2.5,3.4.52,4.03.02,2.45-1.93,3.39-6.09,3.35-9.09,2.22,1.02,1.03,4.1,1.49,6.22.3,1.42,1.66,6.44,2.52,6.88,4.33,1.05,1.45-2.33,1.35-4.72-.03-.74-.24-2.31,1-1.66,2.28,1.19-1.13,6.12,6.7,6.73,3.11.24,9.64-.71,12.01.09.79.26.87,1.38,1.32,1.67,1.9,1.22,4.13,2.2,5.8,3.93.09,1.62-6.34.26-7.72.3-1.92.04-3.63.76-5.34.77-3.42.02-7.05-.83-10.4-1.4v11.07c0,1.5,2.03,2.84,2.34.34l2.34,2.01,1.06-1.95c2.77,2.2,5.64-1.25,5.99-1.25.9.01,3.47,1.72,6.78,1.24,1.34-.19.84-1.46,1.29-1.42,1.3.1,2.16,2.09,4.35.69.03,1.33-.53,2.39,1.34,2.02l3.35-2.02-3.35-.67c-2.55-2.28,9.17-4.71,10.35-4.65,1.27.06,2.41,1.01,3.56,1.15,13.53,1.62,22.17,1.23,35.21-2.72,1.48-.45,7.01-3.25,7.52-3.24,2.68.07,8.24,1.28,7.09,4.76h-4.02s3.35.68,3.35.68c-.84,2.52,1.84,4.7,0,7.37l28.4-.41c7.05.53,14.04,1.46,20.91-.31l7.71,1.39-60.4,1.66-2.67,11.75-4-.65c-.66,2.39,2.25.91,2.68,1.34.32,3.46-.27,6.2-2.68,8.71l2.36,2.03,2.33-1.35v2.69s4.04.32,4.04.32l-.49,2.02,1.49,1.67.35-1.3,1.31-.03c.93,3.34,6.97,2.9,4.08,7.75l-3.4.29.08,3.28,3.8,1.73-1.2,5.05-2-1.33c.14,1.11-.27,2.54-.02,3.55.28,1.12,4.49,1.04-1.31,4.83l3,.33.34,1.34c-1.85-.51-3.08,2.04-4.36,2.05-1.55.02-1.97-2.35-3.69-2.04l.67,6.04c-4.59.26-3.96-.46-3.68-4.02.07-.86,1.18-2.27-.67-2.02l-1.02,7.37c-1.48,1.7-5.14-8.99-5.37-2.68-1.11.29-.33-1.15-1.07-1.36-2.39-.67-2.28,1.26-2.73,1.35-1.4.3-9.92.32-10.28.68-.15,1.71-.11,3.26,1.33,4.36l-2.67.34.67,2-5.65.69c-.64-2.21-1.59-.68-2.42-1.05-2.68-1.19-1.31-6.53-3.05-6.96-2.35.05-3.24,1.72-4.95,2.95l1.31,2.35c-2.77,0-3.1-3.68-5.98-2.61l-.09,1.88-2.66.07c-.55,2.55,2.53.69,3.89,1.49.23.13,1.1,2.02,1.48,2.53-2.03-.16-8.13-.38-7.31-3.55.29-1.13,2.29-1.59,1.94-3.15l-2.36-.67c-.15,5.17-4.16,3.21-7.7,3.35l1.34,1.34-1.02,1.34c-3.27-2.89-3.93-1.21-7.7-.68l1.26-.72-.6-3.3c-2.26-.54-.74,2.04-2.43,2.6-1.02.34-2.49,0-3.6.08l2.01-2c-2.86.06-4.47,1.7-6.48,3.27-.56.44-1.96.56-2.14.84-.81,1.25.89,3.65.41,5.1-.92,2.76-5.83-1.11-3.85,4.19l1.33-1.33-1.33,4.01,2.68,1.02-2.67,1.34,2.03,1.37c.63,2.23-2.08,1.54-2.09,3.32,1.22,1.76,2.37,3.7,2.03,5.95-.1.67-2.56,1.16-2.53,2.09,0,.31,1,.93,1.02,1.43.1,2.68-.61,6.1.2,8.94-2.71.51-4.51.85-4.04,4.07l-3.24.13-.1,1.88c-2.82-1.68-7.38,2.42-9.05-1.36l-.77,1.38c-1.74-.49-9.46.16-10.21,1.42l.58,3.92-1.34-.33c1.53,2.39-2.03,1.67-1.34,4.34l-3-9.37-4.37,1.99-.05-1.99c-1.64-.39-2.18,1.34-2.34,1.35-1.39.14-2.01-1.07-2.83-1.23s-1.59.36-2.41.28c-.75-.08-2.17-1.84-3.49.22s2.78,4.14,3.07,6.04l1.34-.33-1.35-4.35h2.68c-3.8,8.86,7.03,12.5,11.11,18.78-.77,1.39-1.23,4.22.95,3.03l.68-1.69c-.64,3.08,1.28,1.17,1.7,1.95l.34,2.74c4.45-1.01,2.36,3.95,2.73,4.6.18.32,4.94,3.61,5.96,2.8l-1.33,1.33,6.7,6.04c-3.96-1.6-8.15-5.43-11.41-8.37-11.13-10-22.09-22.67-31.14-34.6-10.94-14.42-20.79-29.97-27.21-46.91,1.23-.24,1.67.58,2.27,1.41,2.85,3.92,6.6,12,9.4,16.76,4.5,7.65,7.24,11.82,12.89,18.97,1.39,1.76,1.94,5.13,4.94,5.79l-4-24.1c1.03-.97,3.36-.83,4.02-1.14,1.06-.5,1.54-2.27,3-2.25.71,0,1.46.89,2.41.99,5.67.63,12.29-.28,17.69-1.04,2.63-.37,7.1.64,9.33.05.71-.19,0-2.03,1.77-1.34v1.33c2.39-2.5,2.65-.2,4.39,0,1.52.19,2.89-1.12,4.11-1.19,1.59-.08,4.92,2.86,6.99.24.95-1.21.7-6.36,1.45-8.61.37-1.12,1.63-1.43,1.76-2.81.2-2.1-1.19-4.47-1.29-6.05-.45-6.55.63-13.3.4-19.82l-1.7-.67c-.36,3.21-.53,7.39-2.35,10.06-.25-1.65-.69-3.22-2.34-4.02-.31,1.17,1.32,6.98-.45,7.41l-51.69.21c-1.43-.58-2.88-4.74-3.24-6.24-2.07-8.71-4.44-25.07-4.38-34.59.01-2.22,1.22-4.62.73-7.03l2.01,4.02v-12.41ZM417.83,611.02l-29.78.1-.75.54c-.77,1.8.76,3.1.98,4.42.7,4.3-1.25,7.14,5.03,8.33,2.06-.93,0-3.09.66-4.02,4.87-2.26,4.33.24,5.89,2.9,2,3.41,4.5-2.02,6.57-2.88v6.7s-2.35.04-2.35.04c-1.92.07,4.08,5.98,4.36,7.01l-2,.35c-.17,2.23.49,5.14,3.34,4.68-.57-2.33,1.88-5.71,1.94-7.01.05-.93-.66-2.16-.63-3.37.1-4.89,1.57-9.15,6.57-10.59l.17-3.85-1.66,1.34c-.84-1.93-4.21-.37-3.69-2.68,1.37.12,5.69.22,5.36-2.01ZM381.55,611.09l-3.92-.03c-.46,2.66-1,4.97,1.31,7.01-2.84.78-.43,1.58-.31,2.65.19,1.57-.46,2.74-.06,5.38.11.71-.56,2.03-.29,2.33.41.45,3.22-.4,3,3.4,1.66.02,2.19-19.11.27-20.73ZM395.02,653.96c-3.6.55-8.3-.22-6.03,4.69,2.57-.75,6.96-1.04,6.03-4.69ZM393.02,659.32c-5.5-1.24-4.72,4.69-1.67,7.37l.93-.08c-.14-1.92,3.15-1.96,2.76.08h.66c-.4-2.35.16-2.64,2.01-3.68l-4.72-1.32.04-2.37Z"/>
    <path class="cls-1" d="M638.44,515.01c-4.56,2.04-9.67,3.24-14.13,5.51-1.23.62-9.74,6.12-10.58,7-.74.77-.86,2.04-1.36,3l19.36,2.46c6.4,1.51,15.38,3.94,21.95,4.87,2.59.36,10.01.43,11.92-1.25.61-.54.35-1.56.64-1.81,2.43-2.12,3.34-3.37,5.19-5.22.42-.42,3.6-2.86,4-2.4.92,3.73-3.18,5.19-2.68,8.71,1.71.12,2.59-1.06,4.32-1.37.55-.1,3.22-.42,3.05.7l-11.4,2.69.68,1.66,29.71,5.06.79,1.34,1.68-.02-.68-1.99c2.36-.86,17.44-7.92,17.98-8.86,1.49-2.55-2.39-5.85-2.54-7.61-.11-1.26.93-2.67.7-3.91-.12-.61-2.32.29-.77-3.54,1.03-2.55,1.46.28,2.29.88.57.41,1.56.34,2.14.85,1.78,1.56,3.61,3.65,3.08,6.04l1.87.07c-.88,3.1,2.45,4.2,2.73,7.04.02.18-2.09.62-1.43,2.9l-4.58,2.11c-.45,2.12,1.33,1.18,2.69,1.33,1.47,4.05-2.64,3.78-3.24,4.8-.09.16.78,2.24-.79,3.25,3.46-.54,9.44-1.8,9.4,3.36-5.59-.47-1.92,3.42-3.36,6.71l1.66-2.68,2.36-.66c-.41,1.72-1.31,4.84-1.3,6.46.01,2.13,1.91,3.66.6,6.27h-1.98s.67-3.67.67-3.67l-1.34-.69c-.54.39-1.24,6.05-1.31,7.4-.06,1.24.74,5.17.54,5.99-.25,1.02-1.72.69-1.92,1.39-.54,1.93,2.53.06,2,1.99l-1.34,2.07c-2.45-.78-3.09,1.27-3.34,3.64,1.24.52,2.46-1.12,3.02-1.12.52,0,1.82,1.62,3.4,1.79,1.92.21,3.37-1.05,5.19-1.11.84-.03,3.05.19,2.47,1.78-11.83.56-23.52-1.49-35.22.73l-31.19.62.34,1.34-1-1.34-23.48-.69.99-1.33,48.64-1.02c.47-1.27-1.18-.81-1.29-1.42-.06-.37.47-1.08.26-1.6-.99-2.34-2.21-.58-3.47-.24-2.46.67-.62.23-2.18,1.23-3.77,2.43-5.59-4.04-10.09-2.33l.04-3.27c3.94-1.23,7.71-.24,11.29-2.84l-1.26-3.27,1.99-.03c-.91-3.19,1.19-5.18.02-8.03l-14.75,2.01c-.37-2.42,2.46-.71,4.4-1.96,1.08-.7,1.71-2.13,1.64-3.4,4.82,2.66,7.47,2.89,12.74,1.34v-2.01c-1.84,1.39-7.25,2.93-9.14,1.4-.77-.62-.67-2.01-1.15-2.52-.7-.76-2.28-1.09-2.75-2.2-.55-1.3.91-5.64-1.72-7.07,3.15-2.55,7.35-2.03,11.01-3.06.77-.22,2.95-1,3.06-1.96-1-.02-1.91.53-2.92.42-7.79-.88-16.57-4.54-24.24-1.74l-.74-1.43c-3.47,1.74-2.38-.7-5.3-1.29l1.66,2.36c-.48,1.05-2.12.69-2.52,1.15s-.31,3.33-1.69,4.35c-2.79,2.06-3.69,2.08-6.52,5.39-.94,1.1.15,2.84-2.67,2.19l.67-2c-1.23-1.07-9.45,8.38-10.16,9.99-.91.52-8.63-4.17-10.63-1.6.83,3.58,6.74-.7,8.04,2.01.76,1.58-3.18.53-4.02,2.68,1.2.23,2.9,4.55,3.05,5.63.24,1.72-3.17,5.98,1.6,6.72l.41-1.32c2.19,1.36,5.22.2,7.22.71.52.13.39,1.31.89,1.37.75.09,1.99-1.09,2.6-.07.36.6.52,2.51.31,2.71-1.2,1.23-2.27-1.36-2.42-1.37-.45-.04-3.82.57-4.45.75-.59.17-.5,1.23-.95,1.32-1.39.26-3-.99-4.49-.64-2.6.73,2.27,5.39-3.77,1.95l1.33-1.99-2.27-.71c-.69,2.17-3.84,1.58-3.76,4.05,2.08.63,4.31.81,6.42,1.33,1.14.28,1.95-.66,1.63,1.36-2.41.33-4.66-.73-7.04-.73-6.84.02-13.51.38-20.16.14-1.27-.05-.92-1.38-1.27-1.35-.85.07-2.08,1.24-3.11.28-.58-5.37-3.55-9.79-2.61-15.42.38-2.26,3.13-5.41-.7-7.39l2.35-3.7c.27-.14.5,2.72,1.67,1.34.62-.74-1.16-1.88-1.24-2.46-.11-.78.95-1.31.98-1.91.02-.39-.83-.95-.78-1.3.46-3.38,2.79-2.94,2.96-3.12,1.93-2.1-3.58-4.35-4.26-5.99-.36-.87.39-1.78.02-2.64-.34-.81-1.87-1.19-1.7-2.36l2.02-.34c.46-2.2-.62-1.9-1.99-3.01,2.01-2.95,2.41-7.92,3.84-10.91,1.8-3.78,10.45-12.83,14.92-10.59,1.93.97.56,3.28,2,3.7l-.66-5.36c2.88-.11,4.97-1.7,7.37.66l1.01-3.34,3.02,1.32-.67-1.32c2.53-.54,6.4-3.17,5.94,1.24ZM614.9,532.07c-1.22-.7-3.62.54-5.18-.2-.15,2.02-1.47,3.9-.08,5.75.96,1.29,8.75,4.98,10.77,6,3.07,1.55,7.39,2.27,9.08,5.01,1.32.5.75-1.08,1.47-1.32,2.01-.65,5.62-.8,7.75-1.41.56-.16.44-1.1.99-1.26,2.09-.61,5.87-.55,8.23-1.37-.01,3.14-3.66,1.57-5.57,2.14-1.41.42-4.44,2.7-6.85,3.13-1.2.21-4.21-1.7-3.67.76,6.52-1.06,12.53,2.83,18.78,1.35-1.17,1.58-3.58,1.85,0,2.67.03-2.98,2.66-3.01,3.67-4.02.7-.7.9-2.15,1.69-3.04.98-1.11,3.24-1.85,3.28-3.43.09-3.59-5.73.4-7.29-.24l3.27-1.41.08-2.6c-3.54.93-7.72-.85-11.12-1.29-2.26-.3-10.36-.18-11.72-1.06-.49-.31-.52-1.43-.72-1.59-.14-.11-2.12.82-3.55.59-.91-.15-1.61-1.05-2.25-1.16-3.53-.65-8.92-.76-11.05-1.99ZM609.92,539.67c-.55-.49-.64-1.71-1.57-1.77v4.26s-1.34,1.1-1.34,1.1l1.99.33c-1.87,2.52.66,2.44,1.15,3.23,1.21,1.92,1.2,5.32,4.9,4.5l-.36-5.39,3.71-.96c-2.81-1.86-5.9-2.97-8.48-5.28ZM719.7,538.58c-.25-.24-6.07,1.34-6.66,1.71-2.15,1.36-1.23,3.5-1.41,3.61-.83.51-4.78-.13-5.34,2.05,1.91-.92,4.31.51,5.7.37.52-.05,1.1-.88,1.98-.96.73-.07,2.06.84,2.37.61.16-.12.46-2.74,1.95-3.23l1.41-4.15ZM721.71,549.98c-3.37-.04-6.64,2.94-8.72,5.35,3.51.36,5.08-2.94,6.9-4.52.54-.48,2.05.4,1.82-.83ZM707.62,558.04c-2.34-1.27-6.07-3.99-4.93.66.95.55,4.63,1.04,4.93-.66ZM701.6,558.7c-2.21.54-6.25-.45-6.03,3l1.67,1.04c.66-2.38,3.6-.94,5.7-2.04l-2.02-.67.69-1.33Z"/>
    <path class="cls-1" d="M570.11,708.29c-.41-1.65-9.38-4.97-11.38-6.39-2.42-2.3-4.48-4.92-6.7-7.41-1.23-1.38-2.99-.19-1.05-2.96l6.04,4.01,1.34-4.01c2.86,1.05,1.8,2.84,2.36,5.36l.67-2.68c1.74,1.57,1.87,3.14,4.68,2.01.24-1.07-.36-1.38-.98-2.03-.75-.79-5.53-5.65-5.9-5.85-.77-.41-1.7-.13-2.52-.17.13-.8-.71-2.25,1.01-2.02,1.81.24,9.87,6.46,11.43,8.03,1.39,1.41,3.52,3.62.64,4.07l-1.33-1.36-2.04,2.69-1.99-1.34-1,1.66c.11.52,7.52,5.58,8.74,6.03,1.03.38,11.75,2.37,12.39,2.37h10.06c3.82,0-.63-6.3-1.69-1.35h-.99c-.64-1.35-1.36-2.02-3.02-2.01-.38,1.23-.16,3.17-2.02,2.69.68-5.37-2.8-4.79-6.71-5.37v3.01s-1.33.32-1.33.32c-.82-1.99-1.87-1.27-.72-3.93l-6.01-2.41c-1.41-3.14,3.53-.02,5.09.27,8.02,1.47,19.5,2.28,27.38-.02,1.35-.39,12.03-6.66,11.14-2.29-1.65,2.18-4.9,2.36-7.36,1.69l-.64,2.39-3.41.29-.03,2.65-3.99.7c.24-.78,1.39-1.52-.33-1.34-2.77.28-3.11,2.26-3.02,4.7,1.19,1.19,17.78-3.56,20.28-4.74.55-.26.57-.99,1-1.3,1.16-.83,2.7-.06,2.19-2.01l-4.02.67c-.67-2.18,2.53-1.38,2.7-2.37.43-2.57-2.91-2.9-3.37-4.01l.05-.96,1.09-.14c-1.1-3.09,1.43-2.45,2.64-3.48,3.02-2.58,5.53-6.65,9.62-7.81,2.27,5.59-2.51,3.54-5.13,5.6l-3.58,4.46,4.97-1.26.41-1.58,1.99-.51c-.3,2-1.62,3.52-2.17,5.54-.25.92-1.23,1.3.49,1.16l8.07-6.03c1.2,2.71-8.04,7.88-3.7,8.73v.65c-1.99.19-1.42,2.67-3.98,1.35.09,2.95-3.48,3.52-2.73,6.7l12.08-.66-2.39,2.63,1.04,1.39c.5-.98,5.27-6.48,5.73-6.69,3.26-1.49.49,3.22.39,3.73-.43,2.08-.89,4.16-.74,6.31l-1.68-.06-1.67,3.76,1.33.33v1c-2.88.23-.44,6.15-1.36,7.02l-3.33,1.05c-.34,1.69,3.43,2.89-1.57,6.78-3.03,2.36-4.06,2.59-7.14.25l-2.46,4.75c-2.38.38-3.09-2.08-3.29-2.1-1.77-.19-3.42,1.99-4.32,3.38,1.6.49,5.03-1.85,6.03,0-2.94.12-5.12,1.54-4.7,4.7l-3.33-5.74c-2.14-.25-2.8,1.89-2.69,3.73l1.6-.67,1.73,1.36-.47,1.34h-1.53s.67,2,.67,2c-3.02-.47-7.26-.51-9.74,1.35l-.65-1.34c-1.59,2.12-4.44.91-6.7,2.02l-.35-4.03-.67,4.02c-1.89-.06-3.11-1.3-5.14-1.13-1.01.08-1.68,1.09-2.44,1-2.23-.28-3.06-3.37-5.17-1.87.95-5.01-5.05-1.74-4.02-6.71l2.01-.67c-4.19.29-7.14-4.08-11.45-2.39-1.85,2.57-.08,2.83,1.38,4.39-4.02,1.67-3.26-2.52-6.69-3.1-1.78-.3-1.81,1.25-3.36,1.09l.67-2.67c-2.78-1.16-3.81,1.89-5.74,1.97-.18,0-.6-2.15-2.92-1.35l-.06-5.99-1.04,1.38-7-.71c1.4-2.17-.62-3.08-.7-4.35-.02-.37,1.09-.23,1.33-.84,2.71-6.87,1.09-16.4.72-23.65l2.06.42c1.05,2.98,3.33,6,5.35,8.45,14.05,16.95,38.87,23.8,59.66,15.62,3.46-1.36,6.93-4.66,10.74-4.36v-2.01c-1.22-.25-2.58.83-3.62.71-.35-.04-.57-2.24-2.42-1.39v2.7c-4.92-.99-10.21,4.55-14.75.66l-.08,2.61-9.64.78-.69-2.07-6.36.68c-.58-2.71,8.72-2.95,9.3-2.58l.69,2.18,2.08.41v-4.03c-.42-.43-3.33,1.05-2.68-1.33h3.35c.14,1.34-.79,3.13,1.33,2.68l.75-3.94,2.16-.07c2.29,3.86,3.06-.91,5.81-.69l-2.68-1.34c.35-4.56,5.46-1.53,7.51-2.67,1.22-.68,1.33-3,4.56-2.02v-2.01c-1.8,1.05-3.56.05-4.95.19-1.01.1-2.07,2.58-2.44-.85l2.34-1.36c-6.17,1.68-12.49,2.09-18.86,2.65-.9.08-1.47-.41-2.25-.63l2,5.36-3.7-.64-.32,2.65-4.7-.66,2.01,2.67-2.3.05c-.69-.2-.53-4.17-3.06-2.72-.45-.76,2.07-6.55,4.02-5.37l-.67-1.7c-5.09,1.58-8.44-2.83-13.42-1.65.18.73-.12,1.86,0,2.69-1.93-1.08-3.89.39-5.36,1.68,1.4,4.06,1.28-1.36,3.03.32.4,1.51.56,3.54.37,5.07-.38,3.1-8.51,1.37-4.75-2.04-.46-1.09-1.51-.38-1.82-.59-2.96-2.1-5.28-4.47-8.9-6.88-.95-.63-.87-2.76-2.68-1.58v-3.35s2.68,1.35,2.68,1.35l.67-2.01c.14,2.47,3.79,3.05,2.69,5.36l3.34-.66c.8,6.79,7.23,1.5,10.74.67Z"/>
    <path class="cls-1" d="M640.21,603.64c-.65.1-4.96,1.58-3.69,2.68,2.6-.6,5.42.63,7.73.67,12.25.25,26.74.64,38.89,0,1.82-.1,3.72-1.06,5.71-.66l-.66-2.38c-2.78.22-5.62-.13-8.41-.3-1.34-.08-1.94.53-1.66-1.34,5.41.84,10.92-.35,16.4-.69,7.42-.47,10.11-.67,17.53-1.95,2.49-.43,4.86.76,6.99-1.39-.86,2.46,3.59,3.99,3.38,1.37h1.3s.04,1.28.04,1.28l2.66-1.3v3.35c2.87-2.43,6.19-1.18,4.02,2.68l10.73,2.03c0,1.16-2.94.74-3.72.7-30.62-1.68-62.1,1.07-92.53.69-5.54-.07-16.47.39-21.35-.74-.36-.08-.91-2.29-3.15-1.32l.68,1.33-5.7.69.99-2.02-22.14-.68.34,11.08-2,4.35c-2.49-1.84.05-3.47.32-5.08.49-2.96-1.09-4.68-3.34-5.31l1.36-2.62c-1.93-.72-1.72-3.2-3.09-4.41-.69-.61-1.82-.5-2.17-.86-.58-.58.67-2.36-1.48-1.83l-.68,4.02c1.33.04,2.4-.53,2.02,1.34h-2.68c-.28,1.28,1.03,2,1.16,3.1.25,2.14-1.69,5.11.53,7.66.66.75,3.97.18,3,3.99l-3.71,1.1c-1.79-.5-3.78-2.41-4.2-4.25-1.04-4.58,2.46-11.89-3.54-13.99l-.63-8,4.69-.35.68-16.09h-2.01c-.61,1.5.85,5.93.37,6.7-.27.43-4.08,3.59-4.4,1.66.49-2.78.43-7.26-1.07-9.67-.32-.51-1.59-.57-1.64-1.1-.05-.59.79-2,.74-3.3-.12-3.52-.88-10.63-1.42-14.01-.63-3.98-4.19-8.44-3.34-12.78l2.7-.38c.59-.56-1.31-5.45,1.33-4.7l.62,3.08-1.26.29-.02,1.33,1.89.4c.37,3.56,1.11,7.29,1.88,10.92.37,1.72,3.6,6.15-.75,4.77l-.35,1.34c3.79-.15,3.45,3.81,3.36,6.71l2.54-1.81c-.14-4.5,1.11-8.95,1.37-13.38.2-3.34-.46-6.96-.43-9.96.21-16.92.3-33.85,1.23-50.95.17-3.13-1.36-9.63,1.64-11.1v1.35s3.41.62,3.41.62l1.31,5.41c2.56-1.12.62-3.12,4.35-2.67-.83,1.26-.35,2.8,1.02,3.34,1.12.44,1.11-2.31,3-1.34v23.48s-3.35,0-3.35,0l2.73,2.3c-.11,10.77-.35,21.5-.79,32.24-.16,3.84.35,7.99-.66,12.03-.33,1.32-1.38,1.77-1.28,3.06.91-.1,2.05.23,2.88.02,1.03-.26.85-3.27,2.48-1.02l-1.33,1.67,2.05.42c-.26,2.03.89,3.97.7,5.97-.13,1.41-1.41,2.54-1.31,3.23.13.85,1.74,1.69,1.82,3.44.02.45-.3,3.2-1.25,3.05l-.68-4.02c-3.42,2.05-4.64-2.04-6.37-2.05-1.83,0-1.28,2.76-2.67,2.05l-2.03-3.34c-1.71-.38-.48,1.28-1.41,2.07-.57.48-2.37.5-2.94,1.62l4.7,2.01-2.39,1.65-1.63-1.31c.43,4.23-3.28,11.25,3.34,11.73-2.96,1.26-4.42,2.89-4.02,6.37l3.35-3.35-1.34,3.35,2.69,1.34-2.68,1c.64,1.83,3.36,1.37,3.89,1.81.44.36.48,2.89.81,3.23,1.76,1.82.86-2.22.95-2.69.12-.65,1.06-1.38,1.09-2.31.01-.29-3.74-2.29-1.72-5.06l.68,1.35.98-.03c-.42-1.32,1.43-1.82,2-1.3.19.17-.15,2.96,2.04,2.68v.64c-2.05.12-2.49,2.37-2.68,4.03.37.33,7.92-.05,8.96-.64.87-.49.26-1.85.43-2.05s4.26,1.46,4.36-1.35c.93,1.43.93,2.43,3.02,2.01-1.93-3.02,3.57-.27,4.51-.12,3.97.63,9.71,1.86,14.61,2.13s9.67-1.31,14.13-.72c1.26.17.86,1.32,1.37,1.37,1.78.18,4.82-.5,6.64-.65,1.34-.11,1.04.19,1,1.35-3.86.4-8.69-.55-12.41,0ZM592.24,508.38c.12-2.14.24-5.87-2.68-6.03l.62,2.3-2.53,1.14-.09,3.26,2.35-2.01,2.33,1.33ZM589.55,512.42l-1.33.99c.44,1.61,1.72,4.67,1.61,6.24-.22,2.87-2.66,4.75-2.3,7.16.11.74,3.64,7.18,4.69,6.39-.25-2.04,2.56-1.75,2.76-2.4.62-2.05.06-7.38-2.4-8.31l-1.66,2-.4-2.68,3.1-1.71-4.07-7.67ZM592.24,534.56c-1.6.06-2.95-1.41-4.01.33l1.36,2.01c-3.24.61-.11,6.3-.7,7.05l-2.66-1.34c-.34,2.2-3.16,5.84-.65,7.03.81.38,2.33.2,2.56.43.25.25-.05,1.92.7,2.98,2.45,3.48,6.29,1.24,5.94-1.94-.09-.86-1.08-1.73-1.2-2.86-.18-1.67.92-3.28.67-4.97-.36-.48-3.84,4.32-4.69,3.35-.63-.72,1.91-3.35,1.81-5.17s-1.54-3.45-.26-6.12c.14-.29,1.42.31,1.13-.78ZM577.5,579.49c3.86-.01,4.34-4.75,1.66-6.03-1.65-.79-1.77,5.34-1.66,6.03Z"/>
    <path class="cls-1" d="M586.87,627.12l1.12,2.73c3.97-.25,7.88-.88,11.63.61l-.35-1.34,2.02-.66c.76,2.15,1.92,3.3,4.36,3.71,4.51.74,13.03.46,16.99,1.75,1.08.35,1.12,1.84,1.8,2.26,1.02.63,3.06.18,4.66.7,1.33.43,10.02,5.7,11.4,6.72,2.09,1.54,3.32,3.9,5.39,5.39-.6,4.46.82,7.78-.86,12.48-1.42,3.96-7.57,9.44-11.05,11.91-21.4,15.25-69.76,17.05-91.91,2.2-3.13-2.09-6.68-5.82-8.46-8.93-1.22-2.13-1.41-7.86-1.03-10.31.63-4.11,5.99-12.27,10.69-11.79l-.67-2c6.86.02,11.49-9.04,18.78-7.39l-1.34-1.33c1.95.15,6.27.54,8.01-.36.91-.47,1.28-1.67,2.49-2.12.98-.37,3.96.17,5.17-.19.83-.25.35-2.24,1.44-2.71l.71,1.39c2.76-.56,3.32-2.13,5.96-.05.91-.19,1.29-3.24,3.05-2.68ZM630.48,645.23c.37-1.72-.28-1.69-1.11-2.58-7.01-7.44-23.79-9.14-33.44-8.76-1.13.04-2.52-.74-3.28-.58-.82.17-1.27,1.48-2.06,1.61-1.54.26-3.37-1.53-4.19-1.64-.77-.1-9.09,1.58-10.65,1.83-7.14,1.16-16.37,2.98-22.55,6.98-1.12.72-1.82,1.54-2.27,2.8.11,1.7,1.18,2.97,1.92,4.39.21.39-.18,1.19-.12,1.23,1.01.76,11.66,2.82,13.87,3.29,6.18,1.32,19.52,4.83,25.24,3.45,5.03-1.21,4.69-1.53,10.1-1.91,4.38-.31,19.05-4.94,22.95-7.3,1.66-1.01,3-2.01,2.89-4.16,2.2-.6.4,1.8,2.67,1.34ZM628.97,650.81c-.93-.54-2.16-.14-3.18-.21l1.34,1.33c-6.61,1.86-13.48,2.72-20.14,4.34-1.09.26-2.63,1.47-2.99,1.46-.57,0-1.55-1.53-3.34-1.09l-.35,2c-2.85-.44-5.45,1.54-8.04,0-1.45,2.51.3,3.32.6,5.1.51,3,1.32,5.7,1.76,7.98.71,3.66-.78,8.5,4.31,10.1,5.61,1.76,6.36-1.78,10.43-3.69-.84-2.81.91.1,2.35-1.72l-2.68-1.67c4.59-1.05,9.86-2.51,14.2-4.25,4.65-1.86,13.97-6.69,16.48-11.02,1.12-1.93,1.72-3.99.71-6.08-2.3.18-3.69-1.84-5.62-2.12-2.12-.31-4.06.84-5.23.69-.43-.06-.4-1.04-.6-1.16ZM582.86,657.98c-1.44-.2-2.77.63-4.2.51-7.4-.62-16.47-3.91-24.32-4.53-3.6-.28-7.07.21-10.6.64l-5.13,9.77c1.52.29,1.09,1.89,1.79,2.34,3.09,1.96,11.98,6.44,15.5,7.88,1.85.76,3.86.16,5.12.54,1.92.57,10.93,3.36,11.46,4.35.32.6-.23,1.72-.03,2l.74.63c2.51-1.24,3.54.8,5.89.68.91-.05,5.81-1.4,6.17-1.96.67-1.06.05-2.54.29-3.59.18-.77,1.87-.52,2.07-2.15.2-1.54-.97-5.43-1.1-7.51-.24-3.85,2.05-9.54-4.32-8.26l.68-1.33Z"/>
    <path class="cls-1" d="M545.29,297.08c-1.07,1.27-18.44.46-21.76.65-20.37,1.19-42.34,5.1-62.25,9.59-10.63,2.4-16.31,4.95-27.71,4.54-7.78-.28-15.6-1.92-23.44-1.38l-7.05-1.66c8.01-2.82,15.87-5.79,24.11-8.1,37.59-10.54,75.76-16.5,115.1-18.43.63-.03,1.88-.18,2.24.14-.06.73.77,1.89.77,2.24v12.41Z"/>
    <path class="cls-1" d="M399.05,446.67c-4.17.31-7.94,1.12-12.07,1.34.92-2.68,1.38-5.4,1.1-8.26-.06-.64-1.02-1.46-1.15-2.77-.75-7.84-.85-15.78-1.95-23.59l1.99-2.94h-2.01c-.66-2.6,1.49-1.34,1.35-3.02-.08-.6-1.19-.11-1.36-.77-.79-3.03-.07-9.96-.24-13.2-.61-11.49-1.71-22.79-2.42-34.33-.49-7.89-.6-15.9-.67-23.81,3.21.57,7.18,0,10.38.68,1.94.42,2.16,2.74,4.37,1.33.21,2.59-2.87,3.13.61,4.09-.96,4.58.53,10.3.69,15.05.07,1.9-.59,3.96-.58,5.9.01,1.79,1.93,3.42-.72,4.13,2.75,2.1,2.13,6.84.67,9.41l1.29.6c-1.59,1.74.83,12.23.05,13.14l-2.34-1.33-1,1.66,3.39,2.1c-.38,18.16,2.75,36.51.63,54.59,3.89-.29,11-1.57,14.97-2.7.29-.08,1.43-3.54,2.47.68-2.67-.43-4.91,1.43-7.1,1.95-13.62,3.24-27.07,7.6-40.9,10.76-6.31,1.44-11.29,3.08-17.35,4.79-3.73,1.05-6.87,2.74-11.12,1.95.23-1.99,8.33-1.98,6.67-3.99l-1.3-.36,8.44-2.98,1.28,1.3c.53-.71,1.21-1.09,2.07-1.3,9.66-2.4,19.58-4.03,29.29-6.26,3.9-.9,7.83-2.17,11.77-2.98l.82-.87ZM384.3,342.02c1.67-.82,7.72-.51,7.32-2.92l-2.61-2.44c-.29,3.15-5.37,1.19-4.71,5.36Z"/>
    <path class="cls-1" d="M323.1,461.63c.17.1.13,1.12.57,1.18,1.27.17,3.88-1.33,5.62-.7l-1.33,4.02,2.02-3.35c1.3-.23.31,1.55.7,1.96.55.58,4.35-.87,4.65.71-4.94,2.43-7.98,3.53-13.41,1.35-.08,2.31,1.85,3.88,1.38,6.37-.36,1.93-1.91,1.05-2.05,2.34h4.01s-.33-4.01-.33-4.01l3.39,6.06c7.92-.6,15.15-4.12,23.1-4.06.08,1.29-1.91.42-2.89.67-.51.13-.41,1.2-.91,1.32-1.15.26-2.61-.2-3.84.08-4.93,1.11-9.67,3.1-14.49,3.29-.65,3.25,2.26,4.05,4.7,5.02-1.84,1.48-1.15,4.23-2.99,5.73-1.31,1.06-5.25,2.33-7.07,2.67l.02,1.32c2.4.04,1.11,5.66,1.48,8.24.71,4.96,3.5,11.09,4.72,16.06.83,3.36,1.99,15.65,4.14,17.37l40.28.6c3.55,3.96.26,3.75.01,5.25-.23,1.41.76,3.04,1.03,4.42-2.9,1.09.34,6.39-.71,9.44.07,1.55,1.37,1.7,2.7,1.68v.99c-2.41.21-.64,6.83-1.35,7.72l-2-.67v3.35s2.68-.66,2.68-.66l-2.36,8.04-.33-2.67h-2.68c4.18-3.68-1.3-5.76,2.68-8.4l-.12-.9c-2.1-.09-1.04-2.46-1.22-4.13h-3.36s-.99-2.67-.99-2.67c-1.77,1.17-1.67,2.15-1.31,4.04l-3.05.64,1.34-1.34-1.4-1.62c-1.07-9.81,6.69-14.27-9.03-13.83-2.51.07-10.29.55-12.19,1.22-5.62,1.98-2.2,4.61-2.9,8.49-.25,1.4-1.91,2.73-1.32,4.62l-2,.45.67-3.34h-3.35c-.7-1.69,2.8-2.75,2.68-3.02-2.5-1.59-.56-5.19-1.65-7.11l-1.69.06c-.02-1.63.15-3.25-.16-4.88-2.39-12.53-7.77-26.41-9.87-39.1-.35-2.08.42-4.32-.35-6.38-.19-.3-4.85-.72-5.28-.65-.49.08-.38,1.22-.9,1.35-2.06.52-8.54-.99-10.49-1.97-.51-.25-4.44-8.98-4.43-10.34,0-.95,1.75-9.54,2.09-10.67.49-1.59,8.66-9.93,10.4-10.4.85-.23,8.37-1.51,8.76-1.28ZM309.16,474.17c2.36,1.01,5.41-4.18,3.01-4.69-1.91-.4-2.48,3.44-3.01,4.69ZM319.22,492.28c-1.08-2.24-2.91-3.07-5.36-2.67-.82,3.93,2.57,3.62,5.36,2.67Z"/>
    <path class="cls-1" d="M400.39,533.21c.37.43-1.01,4.94-.46,6.28.59,1.43,2.18,1.71,3.05,2.88,2.36,3.17,3.09,4.92,2.16,8.91l3.31.73c.32,3.45-3.29-.62-4.03,0,1.5,1.29,1.99,3.99,3.35,5.03.76.58,10.44,4.42,11.94,4.89,1.02.32,2.13-.39,2.9-.17,2.16.62,4.6,2.31,7.28,2.35v1.94s-2.64,1.11-2.64,1.11c-.23,4.18,3.21,3.11,5.33,4.63,1.45,1.04,3.78,6.35,3.35.34,4.46-1.36,5.04.75,8.72,2.01.06-3.69,3.36-5.32,6.71-5.36.37,1.23-1.02,1.59-1.17,2.43-.26,1.5,1.99,3.91-1.51,4.29,4.12,3.97-1.65,5.47-1.39,7.64,1.53.99,3.01,1.63,2.06,3.74.97.51,3.96-1.14,3.35,1.34l-4.74-.28c-1.27-.92.39-3.67-1.96-3.07.51,3.38-.41,2.13-1.72,2.95-.29.18-.33.86-.82,1.02-11.83,3.9-31.29-2.04-42.55-6.71-.77-.32-1.76-2.6-3.57-2.63l-1.66,1.02c.09,1.79,1.86,2.66,2.46,4.12.06.14.7,3.53-.77,2.9-5.97-5.05-9.68-8.82-12.5-16.22-.22-.59-1.13-.55-1.24-1.02-.35-1.49-.34-4.53-.37-6.22,2.03.47,6.02,4.43,5.74,6.36l-1.42.71c.59.71,1.56,4.85,1.75,5.04.94.9,3.71.57,4.68,3.31l.88-.13c-.3-1.59,5.07-1.93,5.82-1.73.49.13.4,1.04.78,1.2,1.71.72,3.17.16,4.06,1.98l18.97,2.03c.03-1.16-1.86-.88-2.34-1.96-.22-.49.33-1.84.17-2.84-.42-2.55-.71-5.25-1.84-7.62l2.67-1.66c-2.22-.67-6.75-.45-8.42-1.98-.92-.84-.88-2.34-1.64-3.06-.83-.79-2.23-.62-2.82-1.06-4.82-3.54-5.85-4.27-8.66-9.46-1.13-2.07-2.02-2.91-3.5-5.04-.32-.45-1.27-.56-1.44-.85-.35-.6.46-1.91.3-2.95-.4-2.54-1.67-4.39-.64-7.14h-1.53c-1.61-.15,1.69-3.22,1.91-3.26.63-.12,1.4.59,1.91.59.58,0,.05-2.21,1.72-1.35ZM443.32,574.8l-2.82-.51-6.55,2.17c1.19,2.1,1.64,3.18,4.29,3.02,1.47-.09,5.72-3.85,5.09-4.67Z"/>
    <path class="cls-1" d="M801.54,452.04l1.34,54.34c-3.55.78-5.26-2.7-8.72-2.02-.9,4.8,1.79,5.52,6.01,5.32l.36-1.98,2.34,1.35-2,1.05,1,2.35-.67,1.3c-.74-2.29-8.15-2.95-8.39-1.65,1.01,1.95.14,4.87,2.03,5.35l-1.94,3.23c.89,1.59,3.67,3.96,2.3,5.86-.6.84-2.81.45-3.06,1.97h4.02c-5.3,3.35,1.74,10.38-2.68,14.43l2.68.34c-1.95,2.53-3.47-.56-4.26-1.14-.48-.35-1.44-.05-1.83-.61-1.79-2.59-.49-14.31-.58-18.08-.21-8.92-.39-17.86-.67-26.82-.38-12.05-1.45-24.62-2.04-36.87-.12-2.56.06-5.15,0-7.71,5,.92,9.77.92,14.75,0ZM799.53,478.19c-3.54-2.23-2.61-2-3.62-5.4l-3.76-.62.39,2.07,2.29.62-1.33,3.64,3.34,2.06-4.7.33c-1.12,4.84,2.45,6.44,4.75,2.38,1.3-2.3-1.18-4.48,2.63-5.07ZM798.85,495.64c1.26-1.29-.7-10.61-2.68-8.72.16,1.18-.83,2.59-.71,3.61.02.17,2.39.86,1.38,2.41-.58.88-5.14-.74-4.69,1.68.3,1.61,2.81.18,3.37.61l1.66,3.08,3.68-1.34-.49-1.34h-1.53Z"/>
    <path class="cls-1" d="M567.42,339.34l-.59,3.06c3.68,5.15,1.61,14.63,2.94,20.79,2.26,10.52,1.88,22.83,2.64,34.04.15,2.15,2.07,7.42-.21,7.23l-.07,1.28,3.35,1.35-.68-1.32c2.04-.04,3.48-1.91,5.61-1.37.5.13.39,1.38.77,1.38,1.33,0,2.91-2.38,4.74-2.69,2.13-.36,3.81.79,5.29.64,1.03-.1,4.77-1.92,6.22-2.39,3.1-1.01,4.9-1.36,8.58-1.62.82-.06,2.49-.33,3.01.33l-33.52,8.77c-3.41-1.2-2.63,1.23-3.78,1.6s-1.96-.51-2.65-.56c-.32-.02-.18,1.09-.75,1.24-.8.21-7.32.96-7.59.69v-2.68s3.75,1.38,3.75,1.38l2.96-1.38c.18-1.9-1.53-1.24-2.1-3.03-.62-1.94.69-9.79.08-10.37l-4.31-.7-.79,1.41-3.87-.67-.99,1.5c.61,2.94,3.38,3.84,1.91,6.5l1.95.04-.61,6.67-3.02-1.33-1,1.99,4.02,1.34-3.33,1.35-1.35-2.01-.46,2.05c-1.9-.89-2.45,1.32-2.61,1.32-.69.02-1.63-.81-2.54-.73-.25.02-1.15,1.59-4.21,1.98-2.34.31-2.52.68-2.72.71-3,.48-6.18.78-9.24.65l-1.03,2.05-3.36-3.34,10.22-1.52,3.61-1.8,11.66-1.38c-.97-2.7-.27-5.83-.71-8.35-.35-1.97-3.2-5.38-3.35-6.79-.25-2.33,3.46-3.15,3.43-4.62l-2.74-25.19,4.02-.68,1.93,21.84c1.95,2.32,7.89-.58,10.82.3.06-4.01-2.32-9.16.67-12.31l-2.01-12.81,1-.83,1.68.46c.67-3.98-2.21-6.67-1.34-10.74l-1.6.56-1.05-1.49c.95-3.31.81-7.08,1.79-10.36.35-1.16-.24-1.75,1.53-1.45Z"/>
    <path class="cls-1" d="M576.14,425.88c1,1.08-2.28,2.17-2.6,3.13-.81,2.43,2.09,5.09.25,6.92l-1.69-6.69-5.29,1.4c.81,2.45,1.68,5.06,2.7,7.43.49,1.14.66,1.83.97,2.57.35.84,2.59,1.72,1.31,2.67l-1.67-1.34-.68,3.35h2.69c-1.89,4.09,5.18,4.01,1.35,7.72l1.32,1,.34-1.34,1.67,1.68c-.89,1.07-2.49.53-1.99,2.35l1.99-.38c2.23.97.61,8.44,1.29,10.68l-3.29,2.43c1.71.38,3.56-1.53,4.59.32l-.57,3.05-2.68-2.01c.12,1.35-.26,2.9.03,4.2.12.54,3.67,3.37,2.65,4.51-2.5-1.13-2.83-.05-4.68,1.34l-.73-13.68c.18-.62,4.02-.78,3.4-3.09-2.42,1.17-5.39,2.72-8.04,1.34v3.35c-1,1.37-2.14-6.71-2.22-7.49-.37-3.45-.03-7.19-.53-10.9-.27-2-3.07-10.54-1.87-11.76l1.98-.42-.05-7c-1.2-1.1-1.02-.24-1.18.81-.21,1.47.05,3.65-.16,5.22-.99-.39-.95-3.41-1.08-4.5-.07-.6.35-.99.42-1.52-7.01-.01-6.72,2.46-6.48,8.31.12,2.89.89,6.85,1.07,9.48.31,4.47-1.48,7.65-1.39,10.06.05,1.22,1.29.9,1.42,1.45.46,1.98-.86,3.9-.7,5.16.06.45,1.25.36,1.37.87.28,1.19-.29,2.69-.02,3.79.18.72,1.62.61,1.89,1.52.18.62-.63,2.01.15,2.96-3.08-.95-3.02,1.56-5.37,1.34,1.81-2.74.01-4.77-.38-7.04-.3-1.74,1.53-4.01-2.3-3.69l-.06,1.92-2.62.09c-.73-2.13,1.38-1.7,1.41-2.99.04-1.97-1.13-3.82-1.18-5.49-.07-2.35.55-5.24.47-7.98s-1.24-5.49-.69-8.35l2.63,1.09c-.55,2.01-.46,3.33.03,5.32.28,1.14-.65,1.96,1.36,1.63l-.04-7.01,2.06-.37c-.66-2.72.8-7.18-.65-9.58-.59-.97-3.15-.42-2.7-2.48,2.71.63,4.62-.95,6.98-1.46,4.38-.95,9.77-1.07,14-2.59.46-.17.73-2.5,1.82-1.31Z"/>
    <path class="cls-1" d="M312.52,532.53c5.68-2.05,1.19,8.26,6.71,6.72-.97,2.04-.64,5.08,1.38,6.33.77.48,1.96.28,2.64.72,1,.66,4.61,15.86,5.42,18.07l-1.38,1.04,2.98-.04.42,1.98,2.49-.07c.42-.23,1.83-4.26,1.93-4.95.19-1.32-1.6-3.4.89-2.94v8.71s2.01-.67,2.01-.67c-.76,1.91,1.76,1.92,1.33,3-3.53,2.46-2.09,9.91-6.46,11.66-3.84,1.53,1.57-4.72.44-5.93-1.76.53-2.44.73-4.01-.35-1.96-1.35,1.44-.4.66-2.33l-4.34-1.35-.94,1.57.91,1.14-.66,1.3c-2.4-1.36-4.48-2.45-7.36-2.04l-1.7,2.05.67-3.35,2,.67c.5-1.76-1.78-1.56-2.02-2.48-.65-2.49.43-6.57.73-9.17l-1.39-.76v-1s2.01-.66,2.01-.66c-2.17.31-1.04-1.57-1.35-2.88-.15-.65-1.35-.39-1.63-1.73-1.02-4.87-.89-11.28-1.79-16.49-2.04-11.76-3.07-21.84-4.69-33.52-.45-3.27-2.71-6.49-1.61-9.79,3.02,4.01,2.4,9.6,3.2,14.24.65,3.74,1.36,7.35,1.92,10.83.62,3.89,2.86,9.55.59,12.49Z"/>
    <path class="cls-1" d="M547.29,326.59l.53-2.37-.95-.88c-5.98-.94-11.99-.52-18.02-.77-.82-.03-2.49.51-2.34-.66l28.16-.68c.13,3.11-5.66.66-4.68,4.69,3.16-2.52,8.38.9,10.3.71.26-.03,2.67-3.21,3.8-3.71,1.28-.57,5.42-1,7.01-1.05,1.71-.05,1.89.08.1.78-1.14.44-8.8,2.99-3.44,3.94,4.19.75,11.44-.17,16.12-.02,20.05.63,40.33,1.48,60.46,1.79,4.21.06,9.72-.81,13.96-.47,1.01.08,2.11.19,2.36,1.38-3.01.05-6.03-.06-9.05.01-24.76.56-52.95.31-77.8-1.37-2.18-.15-6.35.51-8,.07-.82-.22-.26-2.62-1.75-2.73v5.36c-1.6.18-2.05-.79-1.35-2-3.08.74-5.46-1.71-8.42-1.42-1.28.12-.94,1.44-1.35,1.45-1.07.04-2.99-1.51-3.92-1.42-.49.05-.55,1.25-1.11,1.64-1.32.91-3.29.75-3.32,3.1-1.94-.69-1.4-2.57-.65-4.02-1.03-.15-1.96-.59-3.02-.68-12.92-1.16-27.96-.91-40.9-1.37-32.37-1.15-64.99-1.24-97.24-3.32-4.08-.26-8.38-1.3-12.46-1.68,1.6-1.01,5.88-1.12,7.71-1.07,33.63.98,67.87,3.63,101.27,4.79,15.99.56,32.07.04,47.98,1.98Z"/>
    <path class="cls-1" d="M737.81,419.83c-.5,2.92,1.15,5.91,3,8.08,1.98,2.32,3.69,1.09,2.38,4.67,3.85.35,5.63,4.51,4.69,8.27-.13.52-1.33.43-1.35.84-.04.72.77,2.04.74,3.29-.09,3.96-.52,7.71-.06,11.75l-4.73.39.04,3.64c.92-.14,3.97-.08,4.01,1,.07,1.61-3.05.23-3.6.38-2.54.7.39,6.61,1.6,5.32l-1.34-2.67c.94-.1,2.05.22,2.93.01.79-.19-.01-1.65,1.09-1.36.08,3.83.77,7.28-4.01,7.38l-.34-2.68-2.36,4.68-1.99-1.32c-.1,1,.34,2.33-.18,3.2-.1.17-2.77,2.74-3.18,2.17,1.09-3.3-2.44-2.69-2.69-5.04-.37-3.56,3.19-6.68,3.3-7.46.16-1.09-2.21-1.65.06-3.59l-2.68-.67,4.02-1.36-.09-1.26c-2.03-.06-1.84-2.65.09-3.09l-2.58-1.1c-.29-.32-.18-3.45-.12-4.29.63-8.35,1.83-15.62,1.97-24.19.03-1.61-.94-3.24-.6-4.96h2.01Z"/>
    <path class="cls-1" d="M756.53,318.62c2.11,1.79-.79,16.88-1.59,20.06-.22.87-1.24,1.57-1.53,2.5-1.6,5.24.4,5.19-4.4,10.02-1.07,1.08-3.55,2.61-4.79,4.26-1.57,2.09-2.64,4.51-4.07,6.68-1.52.28-.92-.66-1-1.66-.41-5.75.5-11.45.97-17.15,1.44-2.15,10.1,3.08,11.76-1.64-2.82-2.77-10.15-.62-12.46-2.3-2.06-1.5.49-4.71,1.18-6.32.3-.71.95-.65-.09-1.45l-48.31-1.67c.32-1.01,3.62-.9,4.61-.93,8.89-.28,17.25.6,26.02.69,4.71.05,13.08.31,17.34-.08,3.19-.29,1.38-2.77,2.31-3.37,2.37-.57,5.02-1.43,7.07.36.88,2.68,1.51,6.12.87,8.91-.37,1.59-1.94,2.22-1.86,3.83,3.87-1.02,4.93.94,5.36-4.37.3-3.67-.92-4-1.34-6.05-.07-.36,1.02-.23,1.32-.83.98-1.93.02-7.81-2.95-7.58-.37.03-.31,1.25-.83,1.38-2.98.74-9.83-.54-11.62-3.34l18.04.07Z"/>
    <path class="cls-1" d="M540.6,201.83c2.46-1.54,4.17.08,6.03,1.67-1.71,1.47-3.6.52-5.36-.34-.44,4.16.34,8.32.53,12.41.91,19.36,3.57,40.86,7.26,60.11.98,5.13,2.54,9.8,4.28,14.69,5.2-5.78,3.63-15.19,3.99-22.5.08-1.59.67-3.06.73-4.64.41-12.16-.36-24.42-.02-36.59,1.16.59,2.12,4.2,2.29,5.3.56,3.63-.73,8.38-.28,12.14l1.33-4.02c1.68,4.55-.9,8.27-1.34,12.4-.9,8.42.53,19.26.03,28.21-.36,6.57-1,17.43-2.25,23.6-1.82,9.02-6.1-4.41-6.83-7.2-5.4-20.62-7.1-42.22-9.07-63.38-1.07-11.5-2.64-22.95-2.67-34.55l1.34,2.69Z"/>
    <path class="cls-1" d="M462.1,528.51c1.7,1.57-.05,8.49.22,10.28.1.65,1.01,1.4,1.17,2.76.3,2.43-.4,4.72-.71,7.07l1.88.09c1.14,3.07.37,5.06-.97,7.87-.49,1.03-2.83,3.66-2.89,3.9-.32,1.31,1.83,3.34-.64,3.86.47.76,1.33,3.72-.4,3.05-.49-1.06-2.54-1.09-2.89-1.51-.8-.95,1.12-2.64-2.14-1.17v-2.69s-4.7.68-4.7.68c.09-3.54-.41-6.25-2.01-9.39,5.92.68,2.47-.85,1.68-2.7-.44-1.04-.11-2.17-.38-2.85-.29-.73-1.75-.25-1.33-2.15-.23-1.41,2.62-2.05,2.66-2.69.02-.36-1.07-1.19-1.05-2,.07-2.82,2.81-2.99,3.83-4,.8-.79.85-2.29,1.49-2.88.74-.68,3.53-1.04,4.3-1.73.67-.61,1.49-5.1,2.88-3.82Z"/>
    <path class="cls-1" d="M517.12,395.69l1.34-2.67c-1.71.39-3.23-.53-3.7,1.34l-1.66-1.34c.43,2.44-3.07.22-2.7,2.67l-.99-2-1.74,1.1.72,2.24c-1.59,0-3.2-.14-4.77.29-1.33.37-1.23,1.71-1.69,1.76-1.34.14-2.75-1.08-4.02-1.17-2.16-.15-6.4-.27-8.68-.28s-1.58,1.44-1.99,1.45c-.87.02-2.34-1.27-4-1.42-1.95-.17-3.65.78-4.65.73-.41-.02-.32-1.25-.83-1.37-1.38-.34-2.89.49-4.25.7l.68,1.32c-1.73.17-3.33-.69-5.03-.72-3.7-.06-6.38,1.79-9.05,4.08-.88-9.09,3.25-6.51,9-7.43,1.83-.29,4.68-1.01,6.58-1.46,4.46-1.07,1.55,0,2.83.07.85.05,2.32-.79,3.72.11v-2.02c1.4.12,2.8,1.02,4.24.68.5-.11.4-1.23.91-1.34,7.86-1.72,17.67-4.2,26.1-5.38.54-.08,5.34.59,5.88.78,2.22.78,1.28,6.3.98,8.19l-3.22,1.09Z"/>
    <path class="cls-1" d="M519.8,361.48c-.39,1.98,1.03,3.41,1.33,5.1.37,2.1-1.77,4.89,2.7,4.97-2.98,3.5-11.25,5.5-15.83,5.96-2.72.27-4.98-.44-7.22-.34s-5.2,5.15-6.52,1.16l-.94-.07-2.04,2.69-2.31-1.34c.03.34.06.95-.19,1.13-1.07.75-10.03,3.15-11.72,3.41-1.56.23-4.38-.41-6.21.14,1.1-4.08,6.97-3.04,8.09-3.65.61-.33-.2-1.72,1.32-2.67,1.83-1.15,4.41-2.46,6.2-3.48,5.32-3.03,11.65-5.49,16.94-8.97,1.91-.65.58,2.93,1,3.34h6.71s-.68-1.34-.68-1.34c2.71-.45,3.38-.65,5.36,1.33.02-.9,2.66-8.9,4.03-7.37Z"/>
    <path class="cls-1" d="M438.63,453.39c-.2,1.16-1.34,1.19-2.25,1.44-6.71,1.86-13.85,2.6-20.49,4.67l-.06,1.94c2.46-1.28,4.79-.78,7.12.47l7.3-.47c-4.04,2.63-9.32,2.49-13.95,3.63-1.02.25-1.92,1.12-3.14,1.43-3.63.92-7.47,1.01-11.04,2.24l-.39,3.09-2.01-.33,1.33,2c-2.66-.6-1.88,1.31-2.77,2.27-1.33,1.43-5.2,5.92-6.43,6.31-.93.3-1.92.15-2.87.14,1.33-3.3-1.5-6.45,0-10.05l-39.57,8.04c-.32-1.91.39-1.12,1.55-1.43,12.16-3.28,24.66-5.36,36.85-8.13,5.97-1.36,11.91-2.95,17.91-4.23l.71-1.63-9.58-1.49-5.02-3.03-6.19-.84c4.6-.39,9.64-3.06,14.31-2.01.51.12.35,1.16.76,1.21,6.04.74,13.85.43,19.52-1.84l18.39-3.4Z"/>
    <path class="cls-1" d="M581.5,353.43c.2.17,1.7,3.75,2.41,4.65,2.29,2.88,6.97,4.85,3.64,8.76,1.42-.12,3.02.21,4.4.04,6.83-.81-1.05-13.23,5.66-13.45-1.36,3.25-.95,4.46-.64,7.7.09.95-.53,2.09-.44,2.73.12.78,1.43,1.23,1.53,1.96.33,2.38-3.79,3.17.21,4.72l-2.05,1.38c2.02,2.45.61,4,.73,6,.24,3.86,1.21,8.3,1.35,12.04.05,1.46.42,5.07-1.04,5.73-.56-.04-2.81-1.98-2.9-2.14-.6-1.06,2.09-4.97-4.13-5.23v5.36c-3.72.98-3.63-1.55-5.19-2.71-2.22-1.66-6.42-2.17-8.22-5.68l3-2.86c1.92,2.22,2.44.14,3.53,0,1.65-.22,2.54.86,4.52-.83l-.33,2.69c1.69-.3,3.28-.91,5.07-.74,1.62.16.43,1.54,1.63,1.41.15-2.19,1.72-9.18.02-10.41-3.58-1.6-7.19-2.16-10.91-3.18-2.82-.77-2.89-2.73-7.22-.5.56-1.05-.17-2.86.1-3.58.39-1.06,2.91-1,1.92-3.79h1.33c-.12,2.1,4.6,2.45,5.24.2,1.16-4.05-3.61-6-4.56-9.93l1.32-.32Z"/>
    <path class="cls-1" d="M668.66,391.04c2.47,4.69,4.03,5.9,3.41,11.7-1.07,10.02-14.03,7.11-21.03,7.81s-13.06,3.58-19.88,3.92c.13-1,2.35-1.56,3.19-1.83,2.79-.88,7.8-2.04,10.71-2.71s6.61-.64,9.57-1.5c-.86-1.44-2.32-1.19-3.04-3.32-.47-1.38-1.96-8.55-1.35-9.45l18.42-4.62Z"/>
    <path class="cls-1" d="M604.9,366.95l1.77,2.58.66-1.34c3.42,3.96,9.17,2.19,13.47,4l.43-1.13,1.87.5-2.01,2.67c3.17-.15,3.81-3.66,7.38-4.41,2.82-.59,17.42,9.23,21.64,9.94l1.16,1.85-37.56-4.7c-.39-.87,2.82-.72,1.33-2-.33-.29-3.7,1.34-5.02,1.35-2.25.01-9.25-1.37-9.1-4.34.02-.35,1.24-.27,1.37-.81.27-1.09-.35-2.56.33-3.59l2.28-.55Z"/>
    <path class="cls-1" d="M527.85,352.75l1.35,10.73,2.69-.66.32,1.33c3.22-2.99,4.25-8.15,8.38-10.06l-3.35,7.37,2.68-.67c-.14,5.72,4.73-2.77,7.04-2,2.97.98-1.63,1.93-1.67,2.67l2.41.65c.72,3.92-1,5.32-3.77,7.74l-14.32,3.13c-1.28.13-.93,2.38-1.14,2.56-1.81,1.6-4.69-5.09-3.99-6.02l2.67-.34-1.33-.32c-.07-5.03.08-10.11.66-15.11.12-.99.51-2.04,1.34-1Z"/>
    <path class="cls-1" d="M542.84,387.87c-3.23,3.2-7.43,4.58-9.61,6.85-1.45,1.5.06,2.75-4.47,2.94-4.11.18-.65-6.34-.85-9.03-.1-1.29-1.25-.89-1.39-1.45-.34-1.42.18-3.38,0-4.9,3.92,2.07,6.4-.82,10.04-2.39,1.02-.44,2.49-.02,3.23-.46.41-.24.63-1.81,1.15-1.84.26-.02,2.54,2.07,4.73.14,3.46,4.3.07,7.28-2.82,10.14Z"/>
    <path class="cls-1" d="M509.07,588.88c-2.75,2.78-8.89,1.13-12.42,1.29-6.55.3-13.28,1.65-19.78.73l.67,2-1.63-1.31-7.09,1.31c2.72-1.79-.15-6.08.68-7.37.04-.06.88.57,1.34.28.82-.5,4.56-5.42,6.25-6.77.47-.38,1.68-.13,2.41-.62,1.34-.91,2.77-3.29,2.74-4.96h-2.69c.01-3.44,3.63-5.21,5.03-8.06l.34,6.04,5.35-2.68c.77,2.92-2.11,4.11-2.7,5.17-.55,1-.58,2.41-1.18,3.35-2.88,4.48-7.42,7.21-10.2,11.6h32.87Z"/>
    <path class="cls-1" d="M563.31,333.41c.07.03.08,1,.59,1.2l50.82,1.38v1.35s-136.51-3.03-136.51-3.03c-.45-1.56,1.44-.96,2.35-1,25.02-1.01,50.32,2.29,75.16,1.39,1.85-.07,7.24-1.43,7.6-1.28Z"/>
    <path class="cls-1" d="M659.9,458.18c.32,1.82-.09,3.69.17,5.53.78,5.48,2.29,10.71,3.2,16.25.61,3.68-.06,7.98,2.08,11.28l-2.35,1.59-1-.84-2.67-7.74c-.26,5.86.91,11.88,3.35,17.09l-2.35,1.7c-3.68-3.24-1.69-6.27-2.01-9.74-1.03-11.02-2.11-15.87-1.21-27.34.07-.93-.74-2.16-.51-3.42.12-.67,2.11-.02,1.38-1.76l-2.69-.34c1.8-.5,1.45-1.29,1.35-3.02l3.25.78Z"/>
    <path class="cls-1" d="M616.14,386.58c4.77,1.76,11.48,1.93,17.17,3.27.67.16,2.02.2,1.86,1.14-2.04.07-4.08,1.46-5.86,1.87-2.17.5-8.25,1.42-10.58,1.49-3.88.13-6.26-1.34-9.94-1.38l-1.43,3.37-4.07-2c.6-3.27-2.97-5.33,1.09-7.65,3.02-1.73,3.5.19,5.02.3,2.41.16,1.84-2.21,6.75-.41Z"/>
    <path class="cls-1" d="M651.28,441.98c.8,1.08-12.8,7.22-14.72,6.1l-.04,1.94c-3.19-.7-4.22-1.24-5.74,2.06-2.33-.51-3.32-1.64-2.98-4.07l-2.33,2.68-1.43-2.72c-2.65,1.22-3.84-1.23-4.07-1.28-1.12-.26-7.9-.32-8.27-.68v-2.01c6.63-1.44,13.18-.29,19.79-.68,3.94-.23,8.12-.62,11.99-.89,2.6-.18,4.85-2.05,7.81-.43Z"/>
    <path class="cls-1" d="M757.26,503.02l-4.02-1.68,2.67-1.01c-1.52-2.11-4.48.53-4.03,2.69l-5.36-.67,3.34,3.01-3.01,1.67c-1.71-5.87-3.69-.67-4.07-.64-1.39.1-4.16-1.08-6.69-.72-2.11.3-3.77,2.15-6.34,1.37-.32-4.9-2.22-8.84,4.92-9.13,2.84-.12,6.77,1.36,8.81,1.45,3.55.15,10.08-1.25,13.34-.25,1.92.59.33,2.55.43,3.93Z"/>
    <path class="cls-1" d="M673.41,456.06c1.53,6.94,3.53,14.72,4.01,21.81.29,4.27-1.03,9.64-.62,13.33.22,1.98,1.78,3.43,1.9,4.75.23,2.58-3.21,5.2-5.28,6.4-.48-.59,2.53-8.39,2.67-9.78.31-2.98-1.04-13.68-1.29-17.49-.1-1.54,1.21-4.66-.71-5.59-.72,4.06.25,9.07-.77,12.98-.21.82-1.02,1.47-1.59.44-.34-.6-.74-8.75-.75-10.3,0-1.44.98-3.18,1.02-4.18.01-.3-1.14-.21-1.26-.73-.5-2.13.43-8.44,1.33-10.63.32-.76-.52-1.27,1.34-1Z"/>
    <path class="cls-1" d="M457.4,572.79c-.28,1.88,2.25,2.33,2.54,2.83.56.96.72,5.28,2.59,6.59l2.92-1.71-2.68-1.67c2.74-1.15,3.51,1.35,3.73,1.37,2.91.33,4-3.43,5.33-4.06,1.89-.9-.38,2.64,1.33,2.67l2.34-1c-1.92,2.37-4.75,2.87-4.7,6.38-5.61-2.61-11.93,7.75-16.76,1.66-.53-1.36,2.4-.74,1.32-2.33-.04-.06-.92.18-1.3-.5-1.52-2.68-.92-5.57,2.66-4.88.69-2.68-3.2-.15-2.67-2.33.14-.59,2.56-3.71,3.33-3.03Z"/>
    <path class="cls-1" d="M687.51,511.74c.6,2.12-2.28,1.45-3.53,1.18-1.44-.31-4.1-1.96-5.48-1.87-.4.03-.32,1.22-.84,1.35-4.36,1.1-7.04-2.01-8.5-1.86-.69.07-1.43.95-2.21,1.01-3.35.25-19.76.94-21.96,2.18-.74.41-.22,1.6-.53,1.9-.38.37-2.45.15-3.24.82l-.6-2.63,1.27-.73-2.69-.34c-.01-.41,6.92-2.03,7.89-2.18,11.85-1.91,26.2-2.33,37.57,1.02.92.27,1.92.15,2.86.16Z"/>
    <path class="cls-1" d="M368.09,580.27l.77,3.25-2.69-.39-1.97,4.15c-3.06-1.02-2.6.79-3.16.94-1.84.5-3.71-.75-5.29-.72-2.73.06-1.37,1.77-5.81-.02-3.57-1.45-2.41-.69-6-.99-3.92-.32-7.02-1.32-11.3-.3,3.63-5.6,10.22-1.87,15.82-2.62,1.32-.17.87-1.47,1.27-1.4.6.1,3.23,1.46,4.21,1.79,2.35.79,3.74-.4,5.21,2.91h.99c.5-3.72,6.37-1.89,5.39-6.7l2.57.1Z"/>
    <path class="cls-1" d="M515.77,444.67c-1.07,1.77-4.47,1.26-6.47,1.89-.7.22-2.95,1.98-4.56,2.06-2.62.14-3.57-1.67-6.09,2.07h-.98s-1.04-2.01-1.04-2.01c-.82-.16-4.59,2.49-5.46,2.58-.98.1-3.36-2.16-4.92-1.91-.52-2.51,2.4-1.29,3.2-1.56.09-.03.05-.85,1.12-1.18,7.36-2.23,15.27-1.41,22.19-4.63.61,1.91.63,2.87,3.01,2.69Z"/>
    <path class="cls-1" d="M653.24,433.19c-1.23,1.73-8.07.62-10.37.71-3.3.13-6.85,1.28-10.36.69-1.77-1.43,5.07-3.09,5.57-3.34,1.26-.64,2.98-1.62,4.44-2.4,1.34-.71,1.64-2.56,3.72-2.33.19.02.61,2.28,2.36,1.37l-.66-2.68c2.11.18,6.15,6.79,5.3,7.99Z"/>
    <path class="cls-1" d="M667.33,388.94l-12.21,2.21c-1.95.35-3.18,1.88-6.04,1.17-.45-.11-.47-.91-.74-1.08-.79-.49-3.14-.02-1.45-2.29.58-.78,17.23-4.65,18.89-4.62,2.17.04,1.69,3.13,1.56,4.62Z"/>
    <path class="cls-1" d="M550.86,347.87c.52.84,2.23.7,2.47,3.28.26,2.78-1.75,6.31-1.87,8.1-.08,1.17,2.5,3.7,1.88,5.59h-3.36c.99-2.78-1.23-5-1.4-7.03-.19-2.3,2.17-7.07-1.27-7.74l1.33-2.67-5.36,2.01c.43-4.71,2.42-5.49,6.7-6.04.3,1.23.28,3.54.88,4.51Z"/>
    <path class="cls-1" d="M625.78,619.07l.66,4.02c-2.07-.27-3.35,2.24-5.02,3.36l-.33-2.69-6.03.68,2.68,1.33c-1.78,0-4.71.36-6.03-1.01-.7-.72-.64-2.13-1.35-2.67-1.13-.86-4.21-.33-5.36-2.03-1.01-1.99,3.79-.29,4.38-.3,1.43-.01,2.66-.69,3.94-.65,2.32.07,4.44,1.6,7.44,1.33,1.91-.18,3.11-1.52,5.02-1.38Z"/>
    <path class="cls-1" d="M367.52,594.92c.05,1.55-.75,2.98-2.34,3.1-2.79-3.15-4.93.05-7.4-.03-.68-.02-1.42-.86-2.07-.86-6.53.06-12.61,1.98-19.31-.26l-.74,1.41c-1.49.32-2.34-2.56-1.34-2.7,1.63-.55,3.53.53,4.73.59.24.01.77-1.6,4.1-1.67,7.86-.16,16.38.96,24.37.41Z"/>
    <path class="cls-1" d="M590.24,417.16l-2.13,3.27-2.19-.61c-2.23,2.72-11.22.91-14.49,3.08-.65.43-.94,2.1-1.63,2.18-.53.06-1.9-1.02-2.86-1.08-2.28-.13-6.67,2-4.43-3.35.54-1.3,2.15.07.89-3.49,1.69.5.97,2.6,2,3.69,1.6,1.7,8.59.59,9.7-1.59l5.74.57c-.86-1.63-5.86.33-5.36-2.67,4.63-1.1,9.14,4.94,12.35-.48l2.4.48Z"/>
    <path class="cls-1" d="M694.05,511.24c.42.42.27,2.09,1.18,2.51h.98c-.01-2.19,2.51-2.47,4.24-2.02,1.33.34.02,3.06,3.81.69.31,2.78,3.05,2.89,5.08,4.02l.69-1.39,2.23,1.03-1.26,2.79-2.03-.42-.33,2.68c-.56-.86-3.27-1.66-3.56-2.16-.88-1.53,1.39-3.15-2.82-2.53l1.01,2c-2.34.07-5.39-3.57-6.11-3.85-.54-.21-1.71.27-3.1-.3-2.61-1.08-3.14-4.27-6.56-3.23.1-2.4,6.16-.2,6.54.18Z"/>
    <path class="cls-1" d="M558.7,213.9l-2.03-1.12c-.41-2.24.39-4.85.43-6.88.06-2.98-2.74.98-4.42,1.64-.83.33-6.75,1.76-6.71-.01.02-1,7.27-3.36,8.69-3.72v-1.99s-4,0-4,0c3.88-.59,4.85-4.02,8.04-5.38.59,5.9.22,11.52,0,17.44Z"/>
    <path class="cls-1" d="M690.85,596.27c.07,1.27.32,1.37-1.01,1.36-3.17-.03-6.93-1.35-10.38-.69l2.34.66c1.09.91-.81.74-1.36.71-1.66-.09-3.36-.71-4.68-.7-4.37.03-10.39.92-14.73.7-1.7-.09-3.75-1.46-4.68-1.41-.37.02-.31,1.24-.83,1.37-1.33.33-8.14.74-8.28-1.66,1.39-1,3.43.14,4.92.07,2.5-.12,5.92-1.19,8.14-1.12,1.74.06,3.52,1.41,4.74,1.33,6.06-.37,11.9-1.7,18.02-1.24,2.46.18,5.09,1.11,7.78.62Z"/>
    <path class="cls-1" d="M800.21,543.27l2-3.01c-2.24-1.32-.58-2.98-.83-4.53-.41-2.59-2.73-6.39-2.61-8.21s1.71-6.19,2.08-8.1c.39-2.04-1.61-4.63,1.01-4.98l1.44,9.83c-.54,2.85-.49,5.74-.45,8.64.05,3.68,2.68,9.65-2.65,10.37Z"/>
    <path class="cls-1" d="M668.71,410.45l3.35,36.9c-1.3-.25-1.14-1.39-1.35-2.36-1.91-8.95-3.04-21.6-3.37-30.82-.05-1.35-.67-4.34,1.37-3.72Z"/>
    <path class="cls-1" d="M675.42,337.33c1.09.83-.01,1.21-.99,1.34-3.08.39-8.16.12-11.45.03-1.91-.05-3.56-.69-5.31-.73-13.76-.29-27.67.84-41.29-.98,5.78-.19,12.03-.75,17.79-.67,6.33.08,13.53.96,20.09,1.04,7.06.08,14.05-.62,21.16-.03Z"/>
    <path class="cls-1" d="M610.36,315.87c-.46,1.35-3.23,1.24-4.35,1.3-3.79.19-6.8-.63-10.09-.66-5.71-.06-11.65,2-17.34,1.4-.45-.05-.35-1.24-.87-1.37-1.69-.43-7.02,1.41-7.6-.35-.51-1.54,1.49-.95,2.35-1,12.61-.66,25.27,1.37,37.91.68Z"/>
    <path class="cls-1" d="M552.33,607.67c1.32-.37,2.53-2.97.34-3.35l-1.34,1.34-.68-2,4.32-.03,1.4,4.05c2.09-1.41,6.09-1.05,8.71-.68,1.35.19,4.32.67,5.02,2.01h-30.53s-.99-1.33-.99-1.33c3.65-.65,10.58.89,13.75,0Z"/>
    <path class="cls-1" d="M648.61,521.08c.22.29,1.76.26,2.27.65.7.54.23,1.67.46,2.01.09.13,2-.59,2.62,1.1l-1.33.33,2,1.35-1.33,1.33,2.34-1.33c1.62.89.88,4.15,3.69,3.35-.96,4.43-2.13-.15-2.82-.53-.97-.54-2.85.3-3.94-.44-.61-.41-.41-1.76-.78-2.21-.49-.6-3.36-.68-4.27-2.42-.64-1.22-2.81-8.64-.27-7.48,2.29.85,1.2,4.12,1.35,4.31Z"/>
    <path class="cls-1" d="M649.75,559.56c.31.47.9,3.52.84,4.15-.51,5.31-8.38,1.83-12.05,3.04-.29-1.69.26-1.24,1.47-1.55,2.89-.74,3.08,1.08,5.9.88.75-1.9-3.14-3.65-2.68-4.01,2.35-.24,3.83-1.68,4.03-4.03.12-.09,2.37,1.36,2.48,1.53Z"/>
    <path class="cls-1" d="M386.98,465.46l-2.32,1.36-32.56,7.35c-.33-1.87.39-1.13,1.47-1.51,6.71-2.39,20.18-5.57,27.31-6.82,1.56-.27,4.25.22,6.1-.39Z"/>
    <path class="cls-1" d="M511.08,452.71l-1.06,4.06c-3.79.5-6.84-1.14-10.35-2.06.49-1.84,2.64-.97,3.85-1.53.23-.11.29-.93.64-1.14,2.82-1.66,4.18.54,6.91.67Z"/>
    <path class="cls-1" d="M498.33,439.29c.34,1.96-.46,1.09-1.55,1.42-3.43,1.05-6.2,1.22-9.44,2-7.72,1.83-15.32,4.22-23.21,5.29,1.27-2.19,4.78-1.62,6.86-2.18,1.33-.36,2.48-1.2,3.84-1.53,7.65-1.84,15.87-2.77,23.51-5Z"/>
    <path class="cls-1" d="M381.07,312.03c-.13.06-.1.98-.56,1.14-3.44.99-2.87-3.18-1.81-3.39,5.02,1.39,10.26.32,15.36.69,1.2.09,2.17-.19,2.98,1.04l-9.72,1.05c-.95-.07-5.82-.73-6.24-.53Z"/>
    <path class="cls-1" d="M796.85,590.22l1.34-2.69,4.02,1.35c.34,3.01-2.1,2.2-2.35,2.62-.13.21-1.5,4.26-1.56,4.6-.44,2.68,2.93,5.12.21,7.53l-2.22-7.15c3.77-8.76-.93-5.04-4.41-5.75-.82-.17-1.29-1.55-2.77-1.84s-3.43.17-5.02-.01c-.16-.95,1.18-.96,1.86-1.14,2.78-.71,10.41-1.24,10.89,2.48Z"/>
    <path class="cls-1" d="M625.78,409.11l-8.39,3c-2.6-1.13-3.58,1.07-5.51,1.53-3.99.94-8.81,1.4-12.92,2.17-.16-.97,1.16-.91,1.87-1.13,7.74-2.51,16.97-4.22,24.96-5.56Z"/>
    <path class="cls-1" d="M577.49,621.76l-3.35,1.34c.1,1.18,1.65.57,2.71,1.65,2.46,2.5-3.44.55-3.89.52-1.24-.1-2.29.57-3.51.51-.64-4.59,4.6-5.37,8.04-4.01Z"/>
    <path class="cls-1" d="M695.55,631.15l-4.39,1.62c-2.94-.04-6.76,1.91-8.02-1.62-1.37,1.96-3.67,1.2-5.67,1.41l-.4,1.99-7.69-.72,4.02-1.35-2.01-1.33c2.52-.74,6.4.73,8.42.6.91-.06,1.65-1.06,2.18-1.08,4.52-.17,9.05-.09,13.55.49Z"/>
    <path class="cls-1" d="M458.75,448.69l-11.38,3.7-7.4.98c-.1-.87,1.58-1.25,2.25-1.48,5.15-1.79,11.09-2.41,16.52-3.2Z"/>
    <path class="cls-1" d="M572.12,588.22c.13,1.69.16,1.14-1,1.32-5.7.86-11.36-.54-17.1.02-.98-.98.05-1.21.99-1.34,2.52-.34,4.71.57,6.72.53,3.21-.06,6.97-1.06,10.39-.53Z"/>
    <path class="cls-1" d="M745.53,607.67c-.23-.06-1.03-.91-1-1.33,1.08-1.41,9.15.53,11.14.6,1.6.06,6.68-2.16,6.3.74-4.48-.75-12.45,1.01-16.43,0Z"/>
    <path class="cls-1" d="M568.09,602.98l-1.33,2,3.35.67h-10.06c.68-4.8,4.56-2.45,8.05-2.67Z"/>
    <path class="cls-1" d="M565.41,621.76l-1.39,4.25,2.06,1.78c-2.39-.57-5.37-.22-5.91-3.13.77-3.21,2.17-3.22,5.23-2.9Z"/>
    <path class="cls-1" d="M682.13,521.14c.21,1.04-1.18.61-1.64,1.36-.71,1.15-1.41,4.07-1.73,5.53l-1.65.5-1.62-3.31c3.01-1.15,1.93-5.21,6.65-4.08Z"/>
    <path class="cls-1" d="M691.53,531.19c.11-.4-.33-1.13.39-1.41l13.03-3.28c-1.03,2.58-4.09,2.05-6.19,2.73-2.38.77-3.84,1.51-7.23,1.96-.1.36.07.91,0,1.34-3.45-.17-6.92,2.14-10.72,2.01-.33-1.96.46-1.09,1.56-1.42,3.84-1.17,5.57-1.45,9.17-1.93Z"/>
    <path class="cls-1" d="M786.11,731.1c-.11,1.98-6.9,10.64-8.72,9.38-.03-2.82,3.94-4.3,5.81-6.18.17-.17.91-3.69,2.91-3.2Z"/>
    <path class="cls-1" d="M678.11,328.61v1.34h-13.08c-.13,0-1.91-1.81-1.68-2.01.92-.36,1.54.66,1.68.66h13.08Z"/>
    <path class="cls-1" d="M573.46,323.91c-.11-3.31,3.59-.77,5.08-.71,1.85.07,4.13-.72,6.65-.62.8.03,4.12.35,4.37,1.33h-16.1Z"/>
    <path class="cls-1" d="M441.31,437.96c-.9,2.63-2.57,1.31-4.04,1.65-2.25.51-4.55,1.38-6.76,1.99-1.33.36-1.6.74-2.61-.63l13.41-3.01Z"/>
    <path class="cls-1" d="M644.57,404.42c-2.98,2.8-8.8,2.75-12.74,3.34.13-1.05,2.46-1.43,3.34-1.68,2.89-.81,6.4-1.49,9.4-1.66Z"/>
    <path class="cls-1" d="M679.45,329.95c-.05-.44.89-1.34,1.01-1.34h10.06l.68,1.34-.69.68c-.47.05-1.08-.68-1.33-.68h-9.73Z"/>
    <path class="cls-1" d="M377.25,547.98c1.77.89,2.5,6.31.66,6.69-2.07.43-2.99-5.81-.66-6.69Z"/>
    <path class="cls-1" d="M594.93,578.15c-.44,1.47,1.24,5.88-1.33,5.37v-2.69s-2.68.68-2.68.68l-.67-3.36h4.69Z"/>
    <path class="cls-1" d="M346.73,480.22l-5.36,2.35-6.71.99c.13-1.05,2.46-1.43,3.34-1.68,2.69-.76,5.94-1.33,8.73-1.66Z"/>
    <path class="cls-1" d="M537.24,430.58l-8.45,2.6c-1.66-.11-3.71,1.44-4.96-.26,4.47-.75,8.78-2.73,13.41-2.34Z"/>
    <path class="cls-1" d="M601.64,503.7l2-.69c.46,2.45,2.03,3.86-.34,6.04l-2.16-5.2.49-2.17v2.02Z"/>
    <path class="cls-1" d="M658.23,448.48c.13.3,1.74-.1,1.1,1.54l-2.71-1.12-.64-10.28c.87-.18,1.08,1.25,1.17,1.83.42,2.86-.17,5.2,1.08,8.02Z"/>
    <path class="cls-1" d="M795.5,625.78l-.3,2.05-.81.53c-3.43.51-4.66.22-3.58-3.25l4.69.68Z"/>
    <path class="cls-1" d="M484.91,448.69l-12.74,3.34c2.8-2.87,8.96-3.26,12.74-3.34Z"/>
    <path class="cls-1" d="M715.01,522.47h-3.36s.68-4.69.68-4.69c2.6.04,2.93,2.6,2.68,4.69Z"/>
    <path class="cls-1" d="M743.18,472.17c1.1-.2,4.47-.13,4.02,1.66l-4.35,3.02c-2.48-1.54,1.63-2.22,1.65-3.02l-1.33-1.67Z"/>
    <path class="cls-1" d="M304.47,671.39c-1.19,1.27-5.25-6.46-3.01-7.37l3.01,7.37Z"/>
    <path class="cls-1" d="M780.07,586.88l-1.66,3.98c-1.76-.72-2.84-1.8-1.75-3.67l3.41-.32Z"/>
    <path class="cls-1" d="M595.6,397.03c-2.56.33-4.99-.3-4.69-3.35.71-.72,5.26,1.49,4.69,3.35Z"/>
    <polygon class="cls-1" points="407.1 331.96 408.8 330.59 419.85 331.96 407.1 331.96"/>
    <path class="cls-1" d="M655.98,633.16c1.09.86-.08,1.22-1,1.34-2.39.31-5.26-.22-7.72,0-.08-1.06,1.7-1.09,2.45-1.25,2.17-.44,4.11-.36,6.27-.08Z"/>
    <path class="cls-1" d="M472.84,429.9c.49,2.21-2.44,1.1-4.06,1.64-1.25.41-1.86,1.91-3.31,1.71v-2.68s7.37-.67,7.37-.67Z"/>
    <path class="cls-1" d="M592.25,639.86v2.69c7.73-.55,9.17,8.23,1.52,9.9-5.06,1.11-16.43,1.34-16.85-5.4,1.92-3.79,5.65-3.15,8.65-4.14,1.42-.47,2.57-2.31,4.67-1.71l-.68-1.33h2.69Z"/>
  </g>
</svg>